<?xml version="1.0" encoding="UTF-8" standalone="no"?>
<!DOCTYPE svg PUBLIC "-//W3C//DTD SVG 1.1//EN" "http://www.w3.org/Graphics/SVG/1.1/DTD/svg11.dtd">
<svg width="100%" height="100%" viewBox="0 0 3100 3000" version="1.1" xmlns="http://www.w3.org/2000/svg" xmlns:xlink="http://www.w3.org/1999/xlink" xml:space="preserve" xmlns:serif="http://www.serif.com/" style="fill-rule:evenodd;clip-rule:evenodd;stroke-miterlimit:10;">
    <g id="Layer-1" serif:id="Layer 1" transform="matrix(4.16667,0,0,4.16667,0,0)">
        <g transform="matrix(1,0,0,1,363.917,358.417)">
            <path d="M0,7.583C19.583,-6.167 40.083,0.583 48.5,7.333C26.916,13.75 0,7.583 0,7.583" style="fill:white;fill-rule:nonzero;"/>
        </g>
        <g transform="matrix(1,0,0,1,443.667,220.666)">
            <path d="M0,132.334C-15.667,113.667 -36.667,106.667 -58,106.667C-79.334,106.667 -98.334,115.001 -111.334,133.667C-131.667,108.001 -155.667,69.334 -135.667,-1.333L25.666,-1.333C25.666,-1.333 47.666,82.668 0,132.334" style="fill:white;fill-rule:nonzero;"/>
        </g>
        <g transform="matrix(1,0,0,1,443.667,211.5)">
            <path d="M0,141.5C-15.667,122.833 -36.667,115.833 -58,115.833C-79.334,115.833 -98.334,124.167 -111.334,142.833C-131.667,117.167 -155.667,78.5 -135.667,7.833L25.666,7.833C25.666,7.833 47.666,91.834 0,141.5M-79.75,154.5C-60.167,140.75 -39.667,147.5 -31.25,154.25C-52.834,160.667 -79.75,154.5 -79.75,154.5M42.916,142.25C54.789,115.914 76.5,-39.333 35,-39.833C30.666,-82.5 -141.167,-82.5 -145.5,-39.833C-187,-39.333 -165.29,115.914 -153.417,142.25C-156.417,161.25 -168.667,225.25 -168.667,225.25C-168.667,225.25 -127.667,283.167 -56,283.167C6,283.167 49,240.667 58.166,225.25C58.166,225.25 45.916,161.25 42.916,142.25Z" style="fill:rgb(34,31,32);fill-rule:nonzero;"/>
        </g>
        <g transform="matrix(1,0,0,1,213.643,652.171)">
            <path d="M0,-236.657C0,-236.657 -125.949,-124.6 -127.397,-109.713C-128.844,-94.823 -129.568,-57.183 -119.434,-52.841C-60.803,-53.564 213.696,-49.945 353.235,-15.925C440.096,-0.722 452.402,0 457.468,-6.514C462.537,-13.029 476.289,-71.659 474.84,-83.966C450.954,-137.53 405.352,-213.534 376.398,-224.39C347.445,-235.249 119.434,-235.17 0,-236.657Z" style="fill:white;fill-rule:nonzero;stroke:rgb(34,31,32);stroke-width:3.9px;"/>
        </g>
        <g transform="matrix(-0.322002,0.946739,0.946739,0.322002,526.502,351.046)">
            <path d="M161.309,-274.067C161.309,-274.067 287.403,-331.337 310.848,-337.89C255.147,-165.693 169.414,194.482 161.309,218.313C120.564,180.753 55.874,80.766 55.874,80.766C60.745,32.725 161.309,-274.067 161.309,-274.067Z" style="fill:none;fill-rule:nonzero;stroke:rgb(34,31,32);stroke-width:3.9px;"/>
        </g>
        <g transform="matrix(0,-1,-1,0,196.493,525.116)">
            <path d="M-15.965,-15.967C-21.042,-15.967 -25.158,-8.82 -25.158,0C-25.158,8.817 -21.042,15.965 -15.965,15.965C-10.889,15.965 -6.773,8.817 -6.773,0C-6.773,-8.82 -10.889,-15.967 -15.965,-15.967" style="fill:rgb(34,31,32);fill-rule:nonzero;"/>
        </g>
        <g transform="matrix(0,-1,-1,0,137.144,521.568)">
            <path d="M-15.965,-15.967C-21.043,-15.967 -25.158,-8.82 -25.158,-0.002C-25.158,8.816 -21.043,15.965 -15.965,15.965C-10.889,15.965 -6.774,8.816 -6.774,-0.002C-6.774,-8.82 -10.889,-15.967 -15.965,-15.967" style="fill:rgb(34,31,32);fill-rule:nonzero;"/>
        </g>
        <g transform="matrix(0,-1,-1,0,257.455,528.342)">
            <path d="M-15.967,-15.964C-21.043,-15.964 -25.158,-8.816 -25.158,0.002C-25.158,8.82 -21.043,15.967 -15.967,15.967C-10.889,15.967 -6.773,8.82 -6.773,0.002C-6.773,-8.816 -10.889,-15.964 -15.967,-15.964" style="fill:rgb(34,31,32);fill-rule:nonzero;"/>
        </g>
        <g transform="matrix(0,-1,-1,0,288.019,369.737)">
            <path d="M-110.224,-110.223C-131.244,-110.223 -148.284,-60.875 -148.284,0C-148.284,60.875 -131.244,110.224 -110.224,110.224C-89.203,110.224 -72.163,60.875 -72.163,0C-72.163,-60.875 -89.203,-110.223 -110.224,-110.223" style="fill:rgb(34,31,32);fill-rule:nonzero;"/>
        </g>
        <g transform="matrix(0,-1,-1,0,288.019,369.737)">
            <ellipse cx="-110.224" cy="0.001" rx="38.06" ry="110.224" style="fill:none;stroke:rgb(34,31,32);stroke-width:1.67px;"/>
        </g>
        <g transform="matrix(0,-1,-1,0,288.021,370.068)">
            <path d="M-105.862,-105.86C-124.655,-105.86 -139.889,-58.464 -139.889,0.002C-139.889,58.466 -124.655,105.862 -105.862,105.862C-87.068,105.862 -71.833,58.466 -71.833,0.002C-71.833,-58.464 -87.068,-105.86 -105.862,-105.86" style="fill:white;fill-rule:nonzero;"/>
        </g>
        <g transform="matrix(0,-1,-1,0,288.021,370.068)">
            <ellipse cx="-105.861" cy="0.001" rx="34.028" ry="105.861" style="fill:none;stroke:rgb(34,31,32);stroke-width:1.12px;"/>
        </g>
        <g transform="matrix(0,-1,-1,0,242.893,512.842)">
            <path d="M36.912,36.914C55.706,36.914 70.941,0.183 70.941,-45.127C70.941,4.72 55.706,45.129 36.912,45.129C18.119,45.129 2.885,4.72 2.885,-45.127C2.885,0.183 18.119,36.914 36.912,36.914" style="fill:rgb(34,31,32);fill-rule:nonzero;"/>
        </g>
        <g transform="matrix(0,-1,-1,0,242.893,512.842)">
            <path d="M36.912,36.914C55.706,36.914 70.941,0.183 70.941,-45.127C70.941,4.72 55.706,45.129 36.912,45.129C18.119,45.129 2.885,4.72 2.885,-45.127C2.885,0.183 18.119,36.914 36.912,36.914Z" style="fill:none;fill-rule:nonzero;stroke:white;stroke-width:0.98px;"/>
        </g>
        <g transform="matrix(-1,0,0,1,378.274,509.957)">
            <path d="M90.255,-68.057C44.944,-68.057 8.213,-52.822 8.213,-34.028C8.213,-15.235 44.944,0 90.255,0C40.408,0 0,-15.235 0,-34.028C0,-52.822 40.408,-68.057 90.255,-68.057Z" style="fill:rgb(34,31,32);fill-rule:nonzero;stroke:white;stroke-width:0.98px;"/>
        </g>
        <g transform="matrix(0,-1,-1,0,252.315,505.136)">
            <path d="M29.207,29.209C44.077,29.209 56.132,0.146 56.132,-35.705C56.132,3.735 44.077,35.707 29.207,35.707C14.338,35.707 2.284,3.735 2.284,-35.705C2.284,0.146 14.338,29.209 29.207,29.209" style="fill:rgb(34,31,32);fill-rule:nonzero;"/>
        </g>
        <g transform="matrix(0,-1,-1,0,252.315,505.136)">
            <path d="M29.207,29.209C44.077,29.209 56.132,0.146 56.132,-35.705C56.132,3.735 44.077,35.707 29.207,35.707C14.338,35.707 2.284,3.735 2.284,-35.705C2.284,0.146 14.338,29.209 29.207,29.209Z" style="fill:none;fill-rule:nonzero;stroke:white;stroke-width:0.78px;"/>
        </g>
        <g transform="matrix(-1,0,0,1,359.431,502.853)">
            <path d="M71.412,-53.848C35.561,-53.848 6.499,-41.793 6.499,-26.923C6.499,-12.054 35.561,0 71.412,0C31.972,0 0,-12.054 0,-26.923C0,-41.793 31.972,-53.848 71.412,-53.848Z" style="fill:rgb(34,31,32);fill-rule:nonzero;stroke:white;stroke-width:0.78px;"/>
        </g>
        <g transform="matrix(0,-1,-1,0,252.315,505.136)">
            <path d="M29.207,29.209C44.077,29.209 56.132,0.146 56.132,-35.705C56.132,3.735 44.077,35.707 29.207,35.707C14.338,35.707 2.284,3.735 2.284,-35.705C2.284,0.146 14.338,29.209 29.207,29.209" style="fill:rgb(34,31,32);fill-rule:nonzero;"/>
        </g>
        <g transform="matrix(0,-1,-1,0,252.315,505.136)">
            <path d="M29.207,29.209C44.077,29.209 56.132,0.146 56.132,-35.705C56.132,3.735 44.077,35.707 29.207,35.707C14.338,35.707 2.284,3.735 2.284,-35.705C2.284,0.146 14.338,29.209 29.207,29.209Z" style="fill:none;fill-rule:nonzero;stroke:white;stroke-width:0.78px;"/>
        </g>
        <g transform="matrix(-1,0,0,1,359.431,502.853)">
            <path d="M71.412,-53.848C35.561,-53.848 6.499,-41.793 6.499,-26.923C6.499,-12.054 35.561,0 71.412,0C31.972,0 0,-12.054 0,-26.923C0,-41.793 31.972,-53.848 71.412,-53.848Z" style="fill:rgb(34,31,32);fill-rule:nonzero;stroke:white;stroke-width:0.78px;"/>
        </g>
        <g transform="matrix(0,-1,-1,0,262.461,496.836)">
            <path d="M20.906,20.908C31.552,20.908 40.179,0.104 40.179,-25.558C40.179,2.674 31.552,25.56 20.906,25.56C10.262,25.56 1.635,2.674 1.635,-25.558C1.635,0.104 10.262,20.908 20.906,20.908" style="fill:rgb(34,31,32);fill-rule:nonzero;"/>
        </g>
        <g transform="matrix(0,-1,-1,0,262.461,496.836)">
            <path d="M20.906,20.908C31.552,20.908 40.179,0.104 40.179,-25.558C40.179,2.674 31.552,25.56 20.906,25.56C10.262,25.56 1.635,2.674 1.635,-25.558C1.635,0.104 10.262,20.908 20.906,20.908Z" style="fill:none;fill-rule:nonzero;stroke:white;stroke-width:0.56px;"/>
        </g>
        <g transform="matrix(-1,0,0,1,339.138,495.201)">
            <path d="M51.119,-38.545C25.456,-38.545 4.652,-29.917 4.652,-19.272C4.652,-8.628 25.456,0 51.119,0C22.887,0 0,-8.628 0,-19.272C0,-29.917 22.887,-38.545 51.119,-38.545Z" style="fill:rgb(34,31,32);fill-rule:nonzero;stroke:white;stroke-width:0.56px;"/>
        </g>
        <g transform="matrix(0,-1,-1,0,273.332,487.943)">
            <path d="M12.013,12.015C18.13,12.015 23.09,0.059 23.09,-14.687C23.09,1.537 18.13,14.689 12.013,14.689C5.896,14.689 0.938,1.537 0.938,-14.687C0.938,0.059 5.896,12.015 12.013,12.015" style="fill:rgb(34,31,32);fill-rule:nonzero;"/>
        </g>
        <g transform="matrix(0,-1,-1,0,273.332,487.943)">
            <path d="M12.013,12.015C18.13,12.015 23.09,0.059 23.09,-14.687C23.09,1.537 18.13,14.689 12.013,14.689C5.896,14.689 0.938,1.537 0.938,-14.687C0.938,0.059 5.896,12.015 12.013,12.015Z" style="fill:none;fill-rule:nonzero;stroke:white;stroke-width:0.32px;"/>
        </g>
        <g transform="matrix(-1,0,0,1,317.395,487.005)">
            <path d="M29.376,-22.151C14.628,-22.151 2.673,-17.192 2.673,-11.075C2.673,-4.958 14.628,0 29.376,0C13.152,0 0,-4.958 0,-11.075C0,-17.192 13.152,-22.151 29.376,-22.151Z" style="fill:rgb(34,31,32);fill-rule:nonzero;stroke:white;stroke-width:0.32px;"/>
        </g>
        <g transform="matrix(0.0897038,-0.995968,-0.995968,-0.0897038,542.267,389.44)">
            <path d="M-109.78,-100.336C-130.798,-100.335 -147.839,-50.987 -147.839,9.887C-147.841,70.762 -130.799,120.112 -109.78,120.112C-88.76,120.113 -71.72,70.764 -71.72,9.889C-71.719,-50.987 -88.759,-100.336 -109.78,-100.336" style="fill:rgb(34,31,32);fill-rule:nonzero;"/>
        </g>
        <g transform="matrix(0.0897038,-0.995968,-0.995968,-0.0897038,542.267,389.44)">
            <ellipse cx="-109.78" cy="9.889" rx="38.061" ry="110.225" style="fill:none;stroke:rgb(34,31,32);stroke-width:1.67px;"/>
        </g>
        <g transform="matrix(0.089704,-0.995968,-0.995968,-0.089704,541.85,389.719)">
            <path d="M-105.433,-96.362C-124.226,-96.362 -139.46,-48.966 -139.461,9.498C-139.461,67.962 -124.226,115.357 -105.433,115.357C-86.639,115.36 -71.404,67.963 -71.405,9.498C-71.405,-48.967 -86.639,-96.363 -105.433,-96.362" style="fill:white;fill-rule:nonzero;"/>
        </g>
        <g transform="matrix(0.089704,-0.995968,-0.995968,-0.089704,541.85,389.719)">
            <ellipse cx="-105.433" cy="9.498" rx="34.028" ry="105.861" style="fill:none;stroke:rgb(34,31,32);stroke-width:1.11px;"/>
        </g>
        <g transform="matrix(0.0798563,-0.996806,-0.996806,-0.0798563,468.489,529.142)">
            <path d="M40.693,34.576C58.624,34.579 73.168,-3.843 73.181,-51.245C73.167,0.903 58.622,43.173 40.693,43.166C22.763,43.162 8.241,0.885 8.256,-51.264C8.242,-3.861 22.766,34.57 40.693,34.576" style="fill:rgb(34,31,32);fill-rule:nonzero;"/>
        </g>
        <g transform="matrix(0.0798563,-0.996806,-0.996806,-0.0798563,468.489,529.142)">
            <path d="M40.693,34.576C58.624,34.579 73.168,-3.843 73.181,-51.245C73.167,0.903 58.622,43.173 40.693,43.166C22.763,43.162 8.241,0.885 8.256,-51.264C8.242,-3.861 22.766,34.57 40.693,34.576Z" style="fill:none;fill-rule:nonzero;stroke:white;stroke-width:0.98px;"/>
        </g>
        <g transform="matrix(-0.996829,-0.0795677,-0.0795677,0.996829,610.333,532.541)">
            <path d="M90.399,-65.268C42.998,-65.267 4.573,-50.733 4.572,-32.804C4.573,-14.874 42.998,-0.343 90.399,-0.342C38.253,-0.341 -4.021,-14.876 -4.021,-32.804C-4.021,-50.733 38.252,-65.267 90.399,-65.268Z" style="fill:rgb(34,31,32);fill-rule:nonzero;stroke:white;stroke-width:0.98px;"/>
        </g>
        <g transform="matrix(0.0794295,-0.99684,-0.99684,-0.0794295,479.846,521.524)">
            <path d="M32.211,27.353C46.397,27.352 57.891,-3.056 57.885,-40.56C57.891,0.7 46.399,34.149 32.211,34.151C18.026,34.155 6.52,0.707 6.514,-40.551C6.522,-3.047 18.025,27.356 32.211,27.353" style="fill:rgb(34,31,32);fill-rule:nonzero;"/>
        </g>
        <g transform="matrix(0.0794295,-0.99684,-0.99684,-0.0794295,479.846,521.524)">
            <path d="M32.211,27.353C46.397,27.352 57.891,-3.056 57.885,-40.56C57.891,0.7 46.399,34.149 32.211,34.151C18.026,34.155 6.52,0.707 6.514,-40.551C6.522,-3.047 18.025,27.356 32.211,27.353Z" style="fill:none;fill-rule:nonzero;stroke:white;stroke-width:0.78px;"/>
        </g>
        <g transform="matrix(-0.996827,-0.0795974,-0.0795974,0.996827,592.062,524.212)">
            <path d="M71.524,-51.64C34.02,-51.64 3.618,-40.141 3.617,-25.955C3.615,-11.77 34.02,-0.27 71.524,-0.269C30.265,-0.27 -3.183,-11.771 -3.184,-25.954C-3.183,-40.142 30.266,-51.64 71.524,-51.64Z" style="fill:rgb(34,31,32);fill-rule:nonzero;stroke:white;stroke-width:0.78px;"/>
        </g>
        <g transform="matrix(0.0793205,-0.996849,-0.996849,-0.0793205,492.064,513.319)">
            <path d="M23.061,19.582C33.215,19.577 41.441,-2.187 41.433,-29.035C41.443,0.5 33.216,24.445 23.061,24.448C12.908,24.45 4.669,0.51 4.661,-29.024C4.668,-2.178 12.906,19.584 23.061,19.582" style="fill:rgb(34,31,32);fill-rule:nonzero;"/>
        </g>
        <g transform="matrix(0.0793205,-0.996849,-0.996849,-0.0793205,492.064,513.319)">
            <path d="M23.061,19.582C33.215,19.577 41.441,-2.187 41.433,-29.035C41.443,0.5 33.216,24.445 23.061,24.448C12.908,24.45 4.669,0.51 4.661,-29.024C4.668,-2.178 12.906,19.584 23.061,19.582Z" style="fill:none;fill-rule:nonzero;stroke:white;stroke-width:0.55px;"/>
        </g>
        <g transform="matrix(-0.996825,-0.0796263,-0.0796263,0.996825,572.387,515.244)">
            <path d="M51.199,-36.965C24.352,-36.966 2.588,-28.737 2.588,-18.582C2.588,-8.426 24.353,-0.194 51.199,-0.194C21.663,-0.193 -2.279,-8.427 -2.279,-18.582C-2.279,-28.737 21.664,-36.967 51.199,-36.965Z" style="fill:rgb(34,31,32);fill-rule:nonzero;stroke:white;stroke-width:0.56px;"/>
        </g>
        <g transform="matrix(0.0797594,-0.996814,-0.996814,-0.0797594,505.144,504.525)">
            <path d="M13.246,11.252C19.082,11.254 23.814,-1.253 23.819,-16.68C23.815,0.292 19.081,14.051 13.246,14.048C7.412,14.048 2.682,0.289 2.684,-16.684C2.682,-1.256 7.411,11.253 13.246,11.252" style="fill:rgb(34,31,32);fill-rule:nonzero;"/>
        </g>
        <g transform="matrix(0.0797594,-0.996814,-0.996814,-0.0797594,505.144,504.525)">
            <path d="M13.246,11.252C19.082,11.254 23.814,-1.253 23.819,-16.68C23.815,0.292 19.081,14.051 13.246,14.048C7.412,14.048 2.682,0.289 2.684,-16.684C2.682,-1.256 7.411,11.253 13.246,11.252Z" style="fill:none;fill-rule:nonzero;stroke:white;stroke-width:0.32px;"/>
        </g>
        <g transform="matrix(-0.996828,-0.0795872,-0.0795872,0.996828,551.311,505.631)">
            <path d="M29.424,-21.243C13.995,-21.241 1.488,-16.512 1.488,-10.676C1.489,-4.841 13.996,-0.11 29.424,-0.109C12.451,-0.111 -1.308,-4.841 -1.309,-10.677C-1.309,-16.512 12.451,-21.242 29.424,-21.243Z" style="fill:rgb(34,31,32);fill-rule:nonzero;stroke:white;stroke-width:0.32px;"/>
        </g>
        <g transform="matrix(1,0,0,1,270.923,425.526)">
            <path d="M0,-8.211C26.316,-22.016 32.356,-32.8 32.356,-32.8L19.845,-66.019C-40.55,-38.41 -51.337,6.455 -59.102,18.968C-65.885,29.899 -51.951,35.065 -43.523,38.292C-31.842,42.765 -27.144,50.18 -17.588,57.808L7.079,19.808C2.274,16.541 -1.816,12.663 -6.924,9.808C-10.847,7.615 -15.533,6.403 -19.891,4.915L-19.894,4.913C-19.894,4.913 -11.216,-4.759 0,-8.211" style="fill:rgb(34,31,32);fill-rule:nonzero;"/>
        </g>
        <g transform="matrix(1,0,0,1,253.334,359.508)">
            <path d="M0,123.826C-9.555,116.198 -14.253,108.783 -25.935,104.31C-34.363,101.084 -48.296,95.918 -41.513,84.986C-33.749,72.473 -22.962,27.608 37.434,0" style="fill:none;fill-rule:nonzero;stroke:rgb(34,31,32);stroke-width:1.07px;stroke-linecap:round;stroke-linejoin:round;"/>
        </g>
        <g transform="matrix(1,0,0,1,251.029,392.726)">
            <path d="M0,37.713C0,37.713 8.677,28.041 19.894,24.589C46.209,10.784 52.25,0 52.25,0" style="fill:none;fill-rule:nonzero;stroke:rgb(34,31,32);stroke-width:1.07px;stroke-linecap:round;stroke-linejoin:round;"/>
        </g>
        <g transform="matrix(1,0,0,1,278.001,427.334)">
            <path d="M0,18C-4.805,14.733 -8.895,10.855 -14.002,8C-20.196,4.538 -28.293,3.521 -34,0" style="fill:none;fill-rule:nonzero;stroke:rgb(34,31,32);stroke-width:1.07px;stroke-linecap:round;stroke-linejoin:round;"/>
        </g>
        <g transform="matrix(1,0,0,1,322.101,495.951)">
            <path d="M0,-27.509C-13.848,-42.519 -21.137,-41.66 -21.137,-41.66C-21.137,-41.66 -27.254,-42.176 -35.166,-41.024C-42.693,-41.165 -54.028,-37.806 -58.621,-22.42C-63.215,-7.035 -46.755,-0.539 -40.042,-0.129C-40.16,1.981 -36.293,3.327 -36.753,5.13C-34.921,15.01 -22.56,13.871 -19.516,7.674C-19.516,7.674 -12.048,6.906 -7.526,1.187C-7.526,1.187 -1.571,1.486 0.482,-3.244C6.59,5.206 13.425,8.73 18.732,2.932C24.347,-4.947 13.849,-12.496 0,-27.509" style="fill:white;fill-rule:nonzero;"/>
        </g>
        <g transform="matrix(1,0,0,1,322.101,495.951)">
            <path d="M0,-27.509C-13.848,-42.519 -21.137,-41.66 -21.137,-41.66C-21.137,-41.66 -27.254,-42.176 -35.166,-41.024C-42.693,-41.165 -54.028,-37.806 -58.621,-22.42C-63.215,-7.035 -46.755,-0.539 -40.042,-0.129C-40.16,1.981 -36.293,3.327 -36.753,5.13C-34.921,15.01 -22.56,13.871 -19.516,7.674C-19.516,7.674 -12.048,6.906 -7.526,1.187C-7.526,1.187 -1.571,1.486 0.482,-3.244C6.59,5.206 13.425,8.73 18.732,2.932C24.347,-4.947 13.849,-12.496 0,-27.509Z" style="fill:none;fill-rule:nonzero;stroke:rgb(34,31,32);stroke-width:1.45px;stroke-linecap:round;stroke-linejoin:round;"/>
        </g>
        <g transform="matrix(1,0,0,1,263.48,466.484)">
            <path d="M0,7.047C4.593,-8.339 15.928,-11.698 23.455,-11.557C31.367,-12.709 37.484,-12.193 37.484,-12.193C37.484,-12.193 28.309,-24.774 9.55,-26.187C-9.208,-27.601 -26.78,0.964 -13.938,22.794C-6.452,25.836 -2.81,27.342 2.268,30.994C7.345,34.648 18.579,29.338 18.579,29.338C11.865,28.928 -4.595,22.432 0,7.047" style="fill:white;fill-rule:nonzero;"/>
        </g>
        <g transform="matrix(1,0,0,1,263.48,466.484)">
            <path d="M0,7.047C4.593,-8.339 15.928,-11.698 23.455,-11.557C31.367,-12.709 37.484,-12.193 37.484,-12.193C37.484,-12.193 28.309,-24.774 9.55,-26.187C-9.208,-27.601 -26.78,0.964 -13.938,22.794C-6.452,25.836 -2.81,27.342 2.268,30.994C7.345,34.648 18.579,29.338 18.579,29.338C11.865,28.928 -4.595,22.432 0,7.047Z" style="fill:none;fill-rule:nonzero;stroke:rgb(34,31,32);stroke-width:1.45px;stroke-linecap:round;stroke-linejoin:round;"/>
        </g>
        <g transform="matrix(-0.293736,-0.955887,-0.955887,0.293736,309.878,493.269)">
            <path d="M-7.757,10.013C-7.757,10.013 -5.143,4.524 8.714,10.013" style="fill:none;fill-rule:nonzero;stroke:rgb(34,31,32);stroke-width:1.45px;stroke-linecap:round;stroke-linejoin:round;"/>
        </g>
        <g transform="matrix(-0.454293,-0.890852,-0.890852,0.454293,318.247,480.552)">
            <path d="M-13.108,10.807C-13.108,10.807 -8.555,4.985 8.037,10.807" style="fill:none;fill-rule:nonzero;stroke:rgb(34,31,32);stroke-width:1.45px;stroke-linecap:round;stroke-linejoin:round;"/>
        </g>
        <g transform="matrix(-0.400473,-0.916309,-0.916309,0.400473,329.827,475.93)">
            <path d="M-12.472,13.357C-12.472,13.357 -7.175,4.853 11.01,13.357" style="fill:none;fill-rule:nonzero;stroke:rgb(34,31,32);stroke-width:1.45px;stroke-linecap:round;stroke-linejoin:round;"/>
        </g>
        <g transform="matrix(1,0,0,1,507.557,425.526)">
            <path d="M0,-8.211C-26.316,-22.016 -32.356,-32.8 -32.356,-32.8L-19.846,-66.019C40.55,-38.41 51.336,6.455 59.102,18.968C65.885,29.899 51.951,35.065 43.523,38.292C31.842,42.765 27.143,50.18 17.588,57.808L-7.079,19.808C-2.274,16.541 1.815,12.663 6.924,9.808C10.846,7.615 15.532,6.403 19.891,4.915L19.893,4.913C19.893,4.913 11.216,-4.759 0,-8.211" style="fill:rgb(34,31,32);fill-rule:nonzero;"/>
        </g>
        <g transform="matrix(1,0,0,1,525.144,359.508)">
            <path d="M0,123.826C9.555,116.198 14.254,108.783 25.936,104.31C34.363,101.084 48.297,95.918 41.514,84.986C33.748,72.473 22.962,27.608 -37.434,0" style="fill:none;fill-rule:nonzero;stroke:rgb(34,31,32);stroke-width:1.07px;stroke-linecap:round;stroke-linejoin:round;"/>
        </g>
        <g transform="matrix(1,0,0,1,527.449,392.726)">
            <path d="M0,37.713C0,37.713 -8.677,28.041 -19.893,24.589C-46.209,10.784 -52.249,0 -52.249,0" style="fill:none;fill-rule:nonzero;stroke:rgb(34,31,32);stroke-width:1.07px;stroke-linecap:round;stroke-linejoin:round;"/>
        </g>
        <g transform="matrix(1,0,0,1,500.477,427.334)">
            <path d="M0,18C4.805,14.733 8.895,10.855 14.003,8C20.196,4.538 28.294,3.521 34,0" style="fill:none;fill-rule:nonzero;stroke:rgb(34,31,32);stroke-width:1.07px;stroke-linecap:round;stroke-linejoin:round;"/>
        </g>
        <g transform="matrix(1,0,0,1,468.559,484.858)">
            <path d="M0,-27.509C13.848,-42.519 21.137,-41.66 21.137,-41.66C21.137,-41.66 27.254,-42.176 35.165,-41.024C42.692,-41.165 54.027,-37.806 58.62,-22.42C63.215,-7.035 46.755,-0.539 40.041,-0.129C40.159,1.981 36.293,3.327 36.752,5.13C34.921,15.01 22.56,13.871 19.516,7.674C19.516,7.674 12.047,6.906 7.525,1.187C7.525,1.187 1.57,1.486 -0.482,-3.244C-6.591,5.206 -13.426,8.73 -18.732,2.932C-24.348,-4.947 -13.85,-12.496 0,-27.509" style="fill:white;fill-rule:nonzero;"/>
        </g>
        <g transform="matrix(1,0,0,1,468.559,484.858)">
            <path d="M0,-27.509C13.848,-42.519 21.137,-41.66 21.137,-41.66C21.137,-41.66 27.254,-42.176 35.165,-41.024C42.692,-41.165 54.027,-37.806 58.62,-22.42C63.215,-7.035 46.755,-0.539 40.041,-0.129C40.159,1.981 36.293,3.327 36.752,5.13C34.921,15.01 22.56,13.871 19.516,7.674C19.516,7.674 12.047,6.906 7.525,1.187C7.525,1.187 1.57,1.486 -0.482,-3.244C-6.591,5.206 -13.426,8.73 -18.732,2.932C-24.348,-4.947 -13.85,-12.496 0,-27.509Z" style="fill:none;fill-rule:nonzero;stroke:rgb(34,31,32);stroke-width:1.45px;stroke-linecap:round;stroke-linejoin:round;"/>
        </g>
        <g transform="matrix(1,0,0,1,527.179,455.39)">
            <path d="M0,7.047C-4.593,-8.339 -15.928,-11.698 -23.455,-11.557C-31.366,-12.709 -37.483,-12.193 -37.483,-12.193C-37.483,-12.193 -28.309,-24.774 -9.55,-26.187C9.208,-27.601 26.78,0.964 13.938,22.794C6.452,25.836 2.81,27.342 -2.268,30.994C-7.345,34.648 -18.579,29.338 -18.579,29.338C-11.865,28.928 4.595,22.432 0,7.047" style="fill:white;fill-rule:nonzero;"/>
        </g>
        <g transform="matrix(1,0,0,1,527.179,455.39)">
            <path d="M0,7.047C-4.593,-8.339 -15.928,-11.698 -23.455,-11.557C-31.366,-12.709 -37.483,-12.193 -37.483,-12.193C-37.483,-12.193 -28.309,-24.774 -9.55,-26.187C9.208,-27.601 26.78,0.964 13.938,22.794C6.452,25.836 2.81,27.342 -2.268,30.994C-7.345,34.648 -18.579,29.338 -18.579,29.338C-11.865,28.928 4.595,22.432 0,7.047Z" style="fill:none;fill-rule:nonzero;stroke:rgb(34,31,32);stroke-width:1.45px;stroke-linecap:round;stroke-linejoin:round;"/>
        </g>
        <g transform="matrix(0.293736,-0.955887,-0.955887,-0.293736,495.726,487.143)">
            <path d="M-7.398,5.731C-7.398,5.731 -4.784,11.22 9.073,5.731" style="fill:none;fill-rule:nonzero;stroke:rgb(34,31,32);stroke-width:1.45px;stroke-linecap:round;stroke-linejoin:round;"/>
        </g>
        <g transform="matrix(0.454256,-0.890871,-0.890871,-0.454256,486.245,483.795)">
            <path d="M-6.62,8.03C-6.62,8.03 -2.066,13.851 14.524,8.03" style="fill:none;fill-rule:nonzero;stroke:rgb(34,31,32);stroke-width:1.45px;stroke-linecap:round;stroke-linejoin:round;"/>
        </g>
        <g transform="matrix(0.400473,-0.916309,-0.916309,-0.400473,479.053,476.873)">
            <path d="M-8.739,8.16C-8.739,8.16 -3.443,16.665 14.743,8.16" style="fill:none;fill-rule:nonzero;stroke:rgb(34,31,32);stroke-width:1.45px;stroke-linecap:round;stroke-linejoin:round;"/>
        </g>
    </g>
</svg>
