<?xml version='1.0' encoding='utf-8'?>
<svg xmlns="http://www.w3.org/2000/svg" version="1.1" width="600px" height="976px" viewBox="0 0 600 976"> <g id="layer1"> <g> <g style="fill:rgb(0,0,0); fill-opacity:1.0; stroke-linejoin: miter"> <path d="M370.93195,338.68463C370.3164,338.98102,370.23676,339.11963,370.17572,339.89343C370.1147,340.68677,370.17395,340.80597,371.00568,341.6209C372.03534,342.61487,372.09375,343.1903,371.10248,342.8512C369.8733,342.4124,368.60236,343.04468,367.92517,344.39252C367.6065,345.06653,367.36792,345.30402,366.9313,345.40244C366.63364,345.46133,366.23648,345.65903,366.05753,345.8571C365.65988,346.31265,364.96292,347.64053,364.96225,347.99753C364.962,348.13638,364.7034,348.49307,364.40524,348.79013C363.49094,349.66122,363.17053,351.20807,363.62433,352.49854C363.84143,353.09412,364.05884,353.5111,364.29645,353.7497C364.5736,354.0478,364.45374,354.50385,363.8971,355.11786C363.67828,355.37524,363.53894,355.6131,363.5984,355.6728C363.65778,355.7522,363.53778,356.22815,363.33832,356.78326C362.8797,357.97266,362.8576,359.1432,363.27197,360.3344C363.44952,360.83075,363.60718,361.40637,363.64642,361.6247C363.66583,361.84283,363.88226,362.7956,364.11847,363.72852C364.3349,364.68115,364.5312,365.77277,364.53052,366.14966C364.52972,366.5465,364.62817,366.92358,364.72723,366.98328C364.8462,367.04303,364.92487,367.4201,364.92413,367.77722C364.923,368.3724,364.80356,368.5507,364.1282,368.96603C363.69125,369.243,363.33353,369.55966,363.33334,369.6589C363.3331,369.77792,363.21396,369.85703,363.0552,369.85672C362.32114,369.85526,361.543,372.15518,362.13742,372.5333C362.25632,372.59305,362.33524,372.8511,362.33475,373.10904C362.33426,373.34708,362.39322,373.6249,362.49228,373.70444C362.5715,373.78397,362.62955,374.53793,362.6279,375.39108C362.62534,376.7203,362.70413,377.03787,363.1393,377.7133C363.47556,378.22977,363.6334,378.68637,363.593,379.08304C363.53238,379.6384,363.67014,380.21402,364.12442,381.26645C364.20334,381.48477,364.38065,382.15964,364.4985,382.75504C365.12723,385.91077,365.42313,386.82385,365.978,387.12256C366.71133,387.52075,366.8289,388.25507,366.9387,393.07617C367.08432,399.8814,367.10367,400.13922,367.996,400.3592C368.70993,400.5193,368.78897,400.65826,368.9443,402.40454C369.0023,403.21796,369.15927,404.05148,369.2582,404.23032C369.35696,404.42886,369.47452,405.24246,369.51266,406.01633C369.62802,407.92105,369.9999,410.56046,370.19754,410.9576C370.29636,411.13638,370.41415,411.7714,370.4924,412.38663C370.57053,413.02158,370.70847,413.51785,370.80765,413.51804C370.90683,413.51822,370.9857,413.73666,370.9852,413.9946C370.98465,414.2723,371.06357,414.53036,371.16257,414.60983C371.2816,414.6696,371.41953,415.1262,371.49796,415.6025C371.55655,416.0986,371.6946,416.4957,371.79385,416.49588C371.89304,416.49606,371.97134,417.0319,371.97012,417.66672C371.96884,418.32144,372.04715,418.89688,372.14615,418.95663C372.24533,419.01633,372.38254,419.84976,372.46005,420.80228C372.5377,421.7349,372.65488,422.6675,372.75375,422.82645C373.0303,423.442,373.54276,425.1888,373.54196,425.58554C373.54153,425.8237,373.6205,426.04214,373.71957,426.12155C373.83853,426.1813,373.97647,426.6578,374.03494,427.17374C374.1523,428.027,374.27066,428.4042,374.76456,429.51614C374.96207,429.9529,375.25333,433.24698,375.42422,437.215C375.49997,439.0801,375.59796,439.69522,375.8947,440.11246C376.0926,440.39053,376.34875,441.28384,376.46625,442.13718C376.77924,444.41922,377.03528,445.39188,377.78546,447.3375L378.49628,449.08475L378.05664,450.7108C377.8169,451.58328,377.4972,452.77304,377.3374,453.32822C377.1776,453.8834,377.05725,454.57755,377.0567,454.8751C377.0561,455.1727,376.91632,455.66837,376.75696,455.9855C376.37866,456.699,375.97858,458.3845,375.45685,461.45865C374.97534,464.2551,374.9536,465.22714,375.3271,467.03323C375.48438,467.7676,375.66058,468.95828,375.7386,469.67264C375.8166,470.387,376.01318,471.29996,376.19098,471.7169C376.4278,472.3522,376.44702,472.66977,376.26685,473.5026C376.14673,474.07767,375.98566,475.28757,375.90454,476.20004C375.84302,477.25143,375.6629,478.06442,375.46393,478.36172C375.28485,478.63907,375.02515,479.59085,374.88458,480.4635C374.7439,481.35596,374.54297,482.6848,374.4225,483.4583C374.302,484.21204,374.22113,484.9856,374.22083,485.1443C374.35425,487.98157,374.47052,489.4499,374.609,489.6089C374.708,489.70825,374.82562,490.48224,374.90338,491.29578C374.9809,492.2284,375.17792,492.98267,375.3955,493.30054C375.98898,494.15466,376.00516,496.03943,375.40973,496.19708C375.1914,496.25616,374.97272,496.49384,374.91278,496.7119C374.69293,497.52496,374.7885,499.44952,375.08472,500.1643C375.24268,500.5415,375.38007,501.31555,375.37897,501.87103C375.3775,502.64478,375.53525,503.141,376.06906,504.1142C376.84012,505.50433,376.93765,506.35767,376.38065,507.1502C376.16183,507.4275,375.9423,508.10156,375.86197,508.61725C375.7816,509.133,375.6418,509.60876,375.5425,509.66815C375.44324,509.72754,375.36008,511.69147,375.35556,514.0324C375.34824,517.84155,375.30753,518.3771,374.96896,519.051C374.74997,519.4474,374.43173,519.9031,374.27267,520.0416C374.09378,520.19995,373.95456,520.39813,373.9543,520.5172C373.95407,520.6362,373.83463,520.874,373.69547,521.0325C373.55618,521.21075,373.2772,521.8848,373.07748,522.53906C372.8779,523.1934,372.63846,523.8873,372.5389,524.0656C372.2999,524.5413,372.31705,525.9499,372.55484,526.10913C372.67374,526.1689,372.7523,526.58563,372.75143,527.0023C372.75064,527.4189,372.84903,527.8357,372.94815,527.89545C373.06705,527.975,373.10654,528.0942,373.04678,528.19324C372.9871,528.29236,373.26425,528.6103,373.66043,528.92847C374.05655,529.2268,374.59134,529.68414,374.86868,529.9227L375.34396,530.3403L374.30954,531.8064C373.7327,532.5989,371.90262,535.1149,370.25156,537.4131C368.58066,539.6914,367.10855,541.7915,366.9691,542.06903C366.82968,542.3465,366.43198,542.84174,366.0941,543.17834C365.75607,543.5149,365.03976,544.60474,364.52206,545.5957C363.9844,546.6064,363.0687,548.1918,362.49152,549.1628C359.10834,554.65173,358.01352,556.5344,358.0129,556.85187C358.01266,556.9908,357.7538,557.5061,357.41562,557.9815C357.09726,558.4769,356.8185,558.97235,356.81827,559.0914C356.81802,559.2104,356.7385,559.30945,356.61948,559.3092C356.5203,559.309,356.42075,559.4874,356.42032,559.7255C356.4196,560.08264,354.9675,562.08356,354.59024,562.2415C354.491,562.28107,354.43118,562.41974,354.43094,562.55865C354.43063,562.6976,354.25156,562.9749,354.03293,563.1729C353.8143,563.37085,353.63528,563.6284,353.63495,563.7672C353.63477,563.8862,353.3363,564.342,352.99817,564.7778C352.6402,565.21356,352.26233,565.7088,352.143,565.8673C351.96393,566.14465,351.188,567.2939,350.05402,568.9185C349.89484,569.1563,349.57654,569.61194,349.35767,569.92896C349.1388,570.246,348.92004,570.54315,348.8604,570.6026C348.78094,570.6619,348.66156,570.8402,348.5819,570.99884C348.36273,571.45465,348.02448,571.9896,347.32813,573.01996C346.97003,573.53516,346.6715,574.0305,346.67133,574.12976C346.67114,574.22894,346.43213,574.6649,346.1338,575.1008C345.29828,576.2698,345.09924,576.58673,344.78058,577.24084C344.60138,577.558,344.26294,578.19214,343.9843,578.62805C343.7256,579.064,343.5063,579.6191,343.48596,579.8572C343.48553,580.0952,343.4057,580.35297,343.2865,580.41223C342.98865,580.5903,343.01685,586.5222,343.31384,586.82043C343.5119,587.0192,343.51166,587.1581,343.31262,587.45526C343.19318,587.6733,343.07294,588.2881,343.0719,588.84357C343.06958,590.0537,343.60394,590.74915,345.14984,591.5258C345.72455,591.8245,346.4181,592.28217,346.69537,592.54065C346.9726,592.7991,347.26978,593.0179,347.36896,593.01807C347.44836,593.01825,347.74542,593.2569,348.04254,593.53516C348.61682,594.09174,348.93378,594.2908,350.47974,595.08734C351.27258,595.5055,351.74847,595.6056,352.89917,595.60785C353.7126,595.6094,354.40674,595.7099,354.46606,595.8291C354.5451,595.9483,354.74347,595.98834,354.90228,595.92914C355.08105,595.85016,355.31897,595.89026,355.43787,595.96985C355.95288,596.38745,365.3963,596.4056,366.96442,595.97217C367.18274,595.9329,367.95673,595.8153,368.7107,595.7374C369.44495,595.6595,370.08002,595.52185,370.13977,595.44257C370.19946,595.34357,370.61627,595.2253,371.0926,595.14685C372.02527,595.00977,373.1369,594.6945,373.65326,594.43756C373.8518,594.33875,374.20905,594.2601,374.46692,594.2606C374.70502,594.26105,375.0822,594.1427,375.30072,593.98444C375.51923,593.846,376.05524,593.6685,376.49182,593.60974C378.03973,593.39453,379.46887,593.0203,380.2234,592.6647C380.66034,592.4473,381.13678,592.2895,381.3352,592.28986C381.51367,592.2902,381.83136,592.1718,382.04987,592.01355C382.26837,591.87506,382.90363,591.6779,383.4394,591.59955C383.99506,591.5213,384.53098,591.40326,384.63034,591.30426C384.74954,591.2251,385.1465,591.1069,385.5236,591.04803C387.62723,590.7149,388.6791,590.4788,389.2947,590.16254C389.67203,589.98474,390.16837,589.827,390.38663,589.7877C390.6049,589.7683,391.18045,589.65045,391.67667,589.53235C392.17285,589.4141,392.92712,589.23706,393.3637,589.15857C393.8003,589.0801,394.37598,588.90265,394.65405,588.7444C394.93207,588.6061,395.32928,588.3887,395.54773,588.27C395.78607,588.1316,397.90912,588.01666,401.00406,587.9631C406.24185,587.8541,406.9166,587.7563,407.39426,586.98346C407.63303,586.60693,407.85123,586.5875,411.36276,586.5943C413.40622,586.5982,415.11227,586.68085,415.1716,586.7802C415.23093,586.8596,415.70688,586.99945,416.24234,587.07983C416.95633,587.1804,417.43204,587.39954,418.0262,587.9165C418.48178,588.3142,418.858,588.7117,418.85776,588.83075C418.85757,588.93,419.03543,589.2675,419.2333,589.5655C419.45096,589.8635,419.68808,590.34015,419.74704,590.6378C419.82584,590.93555,419.9642,591.17395,420.04355,591.1741C420.12296,591.17426,420.24167,591.3331,420.3207,591.51184C420.3798,591.7104,420.51816,592.0082,420.61697,592.1671C420.7159,592.326,420.95297,592.8225,421.13077,593.2593C421.80228,594.8279,422.51376,596.2378,422.67233,596.2976C422.75168,596.3375,422.81082,596.49634,422.81052,596.6352C422.8099,596.95264,423.4424,598.20374,423.64066,598.28345C423.71994,598.3233,424.11575,598.8002,424.5115,599.3367C424.88736,599.8729,425.34286,600.3102,425.48172,600.3104C425.6404,600.3107,425.83865,600.43024,425.9177,600.5693C426.35287,601.2446,427.20566,601.40497,430.24106,601.391C433.23685,601.3769,433.27652,601.37695,434.15054,600.80334C435.2629,600.09125,436.41635,598.66504,436.33792,598.14905C436.29868,597.9308,436.37845,597.7523,436.47763,597.7525C436.59665,597.75275,436.69626,597.5347,436.69675,597.2769C436.6973,596.99915,436.79703,596.7216,436.89627,596.66223C437.01553,596.5831,437.0969,595.53186,437.09958,594.1431L437.10416,591.7624L437.65933,591.9023C438.71036,592.18207,440.85355,591.8886,441.3703,591.3936C441.46967,591.2947,441.688,591.2157,441.86658,591.21606C442.2237,591.21674,443.2574,590.16724,443.25806,589.82996C443.2583,589.71094,443.39734,589.5723,443.5562,589.51306C443.7151,589.434,443.85425,589.2955,443.8545,589.17645C443.85468,589.05743,444.17358,588.324,444.55206,587.5113C444.93054,586.69855,445.24976,585.78656,445.25037,585.4691C445.25098,585.15173,445.37122,584.49725,445.53082,584.0413C446.18933,582.05865,446.20813,572.2977,445.5562,570.8482C445.3982,570.5106,445.28015,569.99457,445.2807,569.7168C445.28125,569.4192,445.06427,568.76416,444.78754,568.2478C444.51074,567.7314,444.29358,567.15564,444.29395,566.9771C444.2943,566.77875,444.21533,566.6199,444.1161,566.6197C444.0169,566.61945,443.8982,566.4605,443.81915,566.26196C443.64166,565.74585,442.71222,564.2165,442.29645,563.7594C442.09845,563.5408,441.86133,563.084,441.8025,562.7069C441.74365,562.3497,441.60535,562.0518,441.50616,562.05164C441.40698,562.05145,441.328,561.8529,441.32855,561.59503C441.32898,561.35693,441.1908,560.97974,441.03247,560.78107C440.8742,560.5625,440.73608,560.18524,440.73657,559.92737C440.73706,559.66943,440.65802,559.4709,440.55884,559.4707C440.4596,559.4705,440.32147,559.0933,440.24304,558.61707C440.1646,558.1605,440.0664,557.64453,440.0072,557.4857C439.96783,557.32697,439.88953,556.7515,439.81122,556.2355C439.7527,555.71954,439.61475,555.24316,439.53546,555.1835C439.43646,555.1238,439.35803,554.60785,439.35907,554.0523C439.34033,553.4769,439.2229,552.66327,439.06506,552.2265C438.90717,551.78973,438.76953,551.1546,438.7702,550.7975C438.77087,550.46027,438.69214,550.12286,438.59302,550.0631C438.49396,550.0034,438.35583,549.6262,438.29706,549.2293C438.21844,548.85223,437.98157,548.2169,437.7641,547.8395C437.5664,547.4622,437.38867,547.06506,437.38885,546.94604C437.3891,546.827,437.25104,546.43,437.09308,546.05286C436.93506,545.6756,436.65845,545.07983,436.5005,544.7026C436.34247,544.3254,436.20428,543.96796,436.2044,543.90845C436.20502,543.591,434.99756,542.1603,433.90833,541.1861C432.66058,540.07263,431.25323,539.4153,430.12244,539.4131C429.52728,539.4119,429.46783,539.35223,429.46893,538.79675C429.4696,538.4595,429.31183,537.9434,429.09418,537.6652C428.8963,537.36725,428.6595,536.732,428.58105,536.2556C428.50256,535.77936,428.3056,535.06476,428.12775,534.66766C427.95,534.2705,427.81183,533.91315,427.7921,533.8536C427.65466,533.11926,427.35852,532.3449,426.84473,531.27264C426.48907,530.55774,426.11414,529.4857,425.97644,528.89026C425.85852,528.29486,425.68152,527.5208,425.62262,527.20325C425.54388,526.8659,425.3664,526.3299,425.20837,525.9725C425.05035,525.6349,424.93213,525.17834,424.93256,524.9601C424.93298,524.7419,424.79468,524.46387,424.656,524.32477C424.49756,524.2054,424.26062,523.5899,424.14288,522.9746C424.02496,522.35944,423.84772,521.6846,423.7489,521.5058C423.6302,521.3072,423.5514,521.0293,423.55176,520.85077C423.55237,520.5135,423.05945,518.92535,422.6643,518.07153C422.52612,517.73395,422.3286,517.25745,422.21014,516.9795C422.11145,516.70154,421.7954,515.98676,421.5188,515.391C421.2422,514.7953,420.96637,513.80286,420.88818,513.20746C420.82977,512.6121,420.75177,511.89783,420.7127,511.60016C420.69342,511.3224,420.5158,510.80615,420.338,510.4289C419.96246,509.714,419.8874,507.49182,420.1861,506.89716C420.52454,506.28284,420.6446,505.7871,420.72626,504.5771C420.84833,502.99017,420.84863,502.81165,420.7895,502.59326C420.6518,502.0177,421.4303,499.5194,421.76758,499.52008C421.9461,499.52045,422.36456,498.58875,422.52484,497.79553C422.58502,497.43854,422.96313,496.84412,423.32092,496.46783C423.7185,496.05188,423.9972,495.57635,423.99774,495.27875C423.9983,495.00104,424.09802,494.7234,424.1974,494.66412C424.31647,494.6048,424.3567,494.32715,424.31744,494.089C424.27832,493.83105,424.39832,493.33533,424.6172,492.97864C424.83612,492.64178,425.05566,491.9677,425.136,491.47186C425.1964,490.99585,425.33618,490.5398,425.41565,490.48047C425.515,490.42114,425.59552,489.76654,425.59692,489.03247C425.59845,488.2588,425.6989,487.60425,425.83807,487.4657C425.99707,487.3073,426.11774,486.43448,426.15985,485.18472C426.22284,483.35965,426.32306,482.8242,426.8011,481.87283C426.88074,481.69443,427.02045,481.2781,427.08063,480.9211C427.16064,480.58395,427.32,480.24698,427.4193,480.18765C427.51868,480.1085,427.5985,479.8508,427.599,479.59286C427.6001,479.03738,428.27777,477.41183,428.57568,477.23392C428.6949,477.15475,428.7948,476.7581,428.7956,476.34146C428.7964,475.9249,428.8567,475.52823,428.93622,475.449C429.4729,474.9144,429.75476,472.81204,429.37903,472.17648C429.18115,471.8983,429.2613,471.52158,429.7,470.3519C430.01898,469.5391,430.47705,468.60745,430.73566,468.27072C430.97437,467.93393,431.19354,467.41855,431.1941,467.14078C431.1947,466.8234,431.354,466.54593,431.5923,466.4075C431.8108,466.2889,432.3277,465.69467,432.76544,465.0607C433.56122,463.91153,435.76773,461.65408,436.105,461.6547C436.20413,461.65488,436.58145,461.4374,436.95895,461.16043C437.33646,460.88333,437.83286,460.66617,438.07095,460.6666C438.30905,460.66708,438.60684,460.52872,438.746,460.37027C438.88522,460.21182,439.18307,460.07352,439.42117,460.074C439.63943,460.07443,440.1158,459.89682,440.45346,459.699C440.79117,459.5013,441.42642,459.26443,441.88297,459.186C442.33932,459.1075,442.75632,458.9694,442.83585,458.8704C442.89548,458.77133,443.4511,458.69296,444.086,458.69418C444.72083,458.6954,445.29626,458.637,445.37585,458.55777C445.5547,458.37955,445.9715,458.30106,447.28113,458.16464C447.8764,458.1262,448.65042,457.94907,449.00778,457.791C449.34537,457.63297,449.76224,457.5148,449.92093,457.5151C450.07968,457.5154,450.43716,457.3375,450.7153,457.11978C450.9935,456.9022,451.39066,456.7244,451.60892,456.72476C451.80728,456.7252,452.48233,456.4487,453.098,456.13248C453.71365,455.79642,454.42838,455.5399,454.6863,455.54037C454.94418,455.54092,455.22208,455.46207,455.34134,455.36307C455.77853,454.94736,458.36008,453.6826,459.09445,453.54514C460.1661,453.32883,461.99216,452.87607,462.36935,452.73795C462.52817,452.67874,463.3024,452.48178,464.0566,452.28488C464.83066,452.10782,465.62466,451.8713,465.84305,451.79233C466.06155,451.69357,466.5577,451.55563,466.93478,451.47702C467.31186,451.41824,467.7487,451.28024,467.92734,451.20114C468.7018,450.8257,469.2775,450.62845,469.9919,450.5306C470.4086,450.4719,470.9844,450.27463,471.28238,450.07675C471.79886,449.72067,473.96286,448.91147,474.87582,448.7148C475.15378,448.65585,475.8284,448.55795,476.36417,448.51932C476.91977,448.46085,477.53506,448.343,477.75345,448.24417C477.9719,448.14542,478.7855,448.02792,479.53946,447.98987C481.0673,447.9134,482.09952,447.57806,482.7158,446.9444C483.4711,446.19208,485.07938,445.54034,486.9846,445.1869C488.01657,445.01038,489.14792,444.73486,489.50534,444.57678C489.84293,444.4187,490.2399,444.3004,490.39865,444.30072C490.55734,444.30103,491.0338,444.12347,491.4707,443.9259C491.92737,443.7085,492.74127,443.47205,493.31677,443.3938C493.8723,443.31543,494.38843,443.17755,494.44806,443.09827C494.5078,442.9992,494.7857,442.92035,495.08325,442.9209C495.38086,442.92145,495.79773,442.7835,495.9964,442.62518C496.21497,442.46686,496.59222,442.3288,496.83032,442.32922C497.0882,442.3297,497.32642,442.2508,497.3861,442.15173C497.4458,442.07245,497.90234,441.93445,498.39844,441.87592C498.95404,441.81738,499.49005,441.62012,499.76837,441.36273C500.00684,441.14496,500.3247,440.94714,500.46356,440.94745C500.60242,440.9477,500.95972,440.82935,501.2378,440.67114C501.53564,440.513,502.05188,440.31567,502.36945,440.23688C502.7069,440.15814,503.00464,440.0794,503.0642,440.0597C503.52075,439.94147,505.44714,438.91364,505.7851,438.5771C506.02356,438.35925,506.2818,438.18115,506.3413,438.18127C506.40082,438.1814,506.67902,437.96368,506.95734,437.68646C507.29517,437.34985,507.67242,437.19196,508.14856,437.19287C508.8628,437.19427,509.59747,436.87817,509.87604,436.44232C509.9557,436.32336,510.17413,436.20477,510.31305,436.20502C510.47174,436.20532,510.61066,436.12616,510.61084,436.04688C510.61102,435.9477,510.96857,435.71027,511.40546,435.49286C511.84235,435.2953,512.1999,435.05792,512.2001,434.97858C512.2002,434.89917,512.5972,434.78094,513.0933,434.70258C513.58936,434.64404,514.046,434.50598,514.1057,434.40692C514.1654,434.3078,514.42346,434.22894,514.7012,434.2295C514.97894,434.23004,515.2371,434.0916,515.297,433.9331C515.37665,433.77448,515.5356,433.63593,515.6546,433.63617C515.97205,433.63678,518.3589,430.46704,518.3597,430.05048C518.36005,429.8719,518.4997,429.45557,518.67896,429.09875C518.9179,428.6231,518.9584,428.22644,518.8409,427.43262C518.64484,426.18237,518.66534,425.86487,519.0836,424.99286C519.3028,424.51715,519.5412,424.3192,519.85864,424.31982C520.55304,424.32117,521.6055,423.80725,522.14233,423.19336C522.9177,422.3219,523.5346,421.3907,523.5352,421.0733C523.5355,420.91455,523.6351,420.71643,523.73444,420.6571C523.8536,420.59778,523.9333,420.39948,523.93365,420.22095C523.9345,419.76465,522.8477,417.50085,522.4516,417.18268C522.27325,417.04346,521.9568,416.5271,521.7395,416.05054C521.5222,415.5938,521.2452,415.1964,521.0865,415.1961C520.7294,415.19543,519.9772,414.34094,519.97797,413.94415C519.9789,413.44818,519.3066,412.27637,518.7125,411.71973C518.41534,411.4414,518.13806,411.2226,518.1182,411.22253C518.07855,411.22247,517.5237,410.88416,516.8897,410.44647C514.8885,409.13324,513.69806,409.17065,512.386,410.55676C511.9287,411.05188,511.3523,411.62622,511.11377,411.8637C510.8554,412.08148,510.6565,412.35883,510.6563,412.45807C510.65613,412.55725,510.09918,413.29022,509.40332,414.06262C508.1905,415.42926,507.47406,416.5984,507.4729,417.21338C507.47253,417.3919,507.39282,417.59015,507.27362,417.6494C507.17432,417.70874,507.07416,418.22437,507.07312,418.76C507.07153,419.59326,506.97168,419.89075,506.4348,420.52454C506.07697,420.9405,505.6988,421.5746,505.5791,421.93152C505.31976,422.66498,505.2403,422.70447,503.65222,423.1975C503.01697,423.3946,502.50073,423.61188,502.50055,423.69122C502.50043,423.7705,501.01227,423.88672,499.18695,423.92285C496.94507,423.9781,495.69495,424.0749,495.35742,424.2528C494.70203,424.60864,493.76782,425.47974,493.76727,425.75757C493.76666,426.0948,492.5558,426.44952,491.32574,426.44714C490.71075,426.44598,490.17502,426.5243,490.11526,426.6234C490.05557,426.72247,488.94443,426.81958,487.67465,426.83698C486.3851,426.83447,483.70676,426.86902,481.7029,426.885C478.72702,426.91895,478.05234,426.9771,477.8931,427.21484C477.7538,427.43286,477.0593,427.53076,474.87686,427.64557C470.9285,427.81653,467.23715,428.44427,466.28372,429.05743C466.00558,429.23547,465.39023,429.43274,464.89407,429.5111C464.39792,429.5697,463.94144,429.70764,463.88174,429.78687C463.822,429.886,463.5045,429.96472,463.18704,429.9641C462.84976,429.9635,462.39322,430.08154,462.15488,430.2002C461.9166,430.33856,460.96396,430.51532,460.0314,430.57306C458.26547,430.70856,457.09445,430.96417,455.76413,431.53693C455.32724,431.7345,454.63254,431.93158,454.1959,432.01013C453.4219,432.1474,453.28287,432.20667,452.13113,432.7798C451.75388,432.95764,451.21793,433.11536,450.94016,433.1148C449.968,433.1129,448.30045,433.66522,447.0889,434.37708C446.13547,434.95056,445.69876,435.08868,444.8655,435.08704C444.31003,435.086,443.7349,434.98566,443.61606,434.8664C443.49728,434.74707,442.82315,434.56735,442.14877,434.46683C441.45462,434.3464,440.54227,434.22562,440.1456,434.14548L439.392,434.04483L439.5126,433.21188C439.5928,432.77554,439.7128,432.2996,439.79227,432.2006C439.89175,432.08182,440.0715,431.44724,440.1918,430.75308C440.39206,429.82108,440.3928,429.44412,440.21457,429.26517C440.09573,429.1459,439.99734,428.74887,439.99796,428.41165C439.9987,428.0546,439.92,427.6973,439.80106,427.63754C439.70206,427.57785,439.6036,427.1412,439.60452,426.66507C439.60544,426.2087,439.46762,425.65305,439.30936,425.43448C439.15097,425.23575,439.0129,424.8387,439.01334,424.60062C439.01462,423.94595,439.4904,424.1453,439.56845,424.81992C439.6075,425.11758,439.70633,425.35587,439.7856,425.356C439.92453,425.3563,440.0228,425.81277,440.27725,427.63846C440.5314,429.56332,440.68906,430.13895,440.9861,430.41733C441.28317,430.67587,441.4418,430.696,441.7596,430.51804C442.13693,430.32034,442.17703,430.12198,442.18076,428.17783C442.2034,426.72964,442.28433,425.93613,442.4633,425.69852C442.82132,425.223,443.1782,425.28314,443.17722,425.79895C443.17673,426.0569,443.31448,426.61267,443.45255,427.04938C443.6696,427.6648,443.8478,427.8636,444.22464,427.904C444.6213,427.96423,444.8002,427.8059,445.17838,427.17175C445.41733,426.71594,445.77512,426.35944,445.95364,426.3598C446.13217,426.36017,446.46982,426.14258,446.7283,425.88513C447.1259,425.46936,447.166,425.23132,447.17007,423.10858C447.19473,420.64853,446.87997,419.25925,446.10837,418.14664L445.71274,417.5706L446.12997,417.25394C446.7061,416.81857,446.88718,415.52942,446.4918,414.75488C446.31393,414.41736,446.17575,414.07983,446.17593,413.9806C446.17654,413.66315,447.26614,414.49854,448.57297,415.83026C449.95895,417.24155,450.09763,417.36075,451.06857,417.93808C451.68295,418.2963,451.74246,418.29642,452.06046,417.97964C452.3586,417.70248,452.35886,417.56357,452.1611,417.24576C452.04245,417.0273,451.92398,416.74936,451.92422,416.63034C451.92447,416.49142,451.70706,416.09415,451.42996,415.73657C451.15292,415.37897,450.93533,415.04126,450.93546,414.98175C450.93655,414.40643,447.19467,410.3719,446.7581,410.45026C446.57944,410.4897,446.24265,410.25098,446.00516,409.95294C444.95633,408.56207,443.88705,407.5086,443.49026,407.5078C443.25223,407.5074,442.83597,407.28827,442.51913,407.01C442.06357,406.57257,442.0045,406.39398,442.10477,405.81873C442.28506,404.88672,443.0023,403.3406,443.2404,403.34106C443.5776,403.34174,445.59927,404.35742,446.51065,404.97424C446.96646,405.27264,447.6002,405.82935,447.89706,406.2069C449.16397,407.6775,450.35123,409.2669,450.35086,409.4455C450.3503,409.74304,451.83566,411.09497,452.17294,411.09558C452.56967,411.09637,452.7491,410.66028,452.5118,410.2829C452.41287,410.12396,452.33444,409.64758,452.3353,409.19135C452.33615,408.75488,452.25766,408.31824,452.15872,408.1991C452.05966,408.09967,451.9216,407.72247,451.84286,407.36523C451.7053,406.7102,451.72513,406.71027,452.18094,406.94922C452.41873,407.06866,452.83475,407.4068,453.0723,407.66522C453.9633,408.5993,455.19455,407.94702,454.7604,406.77563C454.64188,406.47784,454.504,405.96173,454.44516,405.6244C454.38632,405.28693,454.07022,404.57214,453.73398,404.03583C453.41763,403.49957,453.0815,402.90375,453.02237,402.70532C452.94333,402.52655,452.80478,402.36755,452.66592,402.36725C452.36832,402.3667,451.75607,400.9173,451.75748,400.18323C451.7581,399.86584,451.54135,399.09167,451.2648,398.47607C450.98825,397.86053,450.77133,397.14587,450.77182,396.88794C450.7723,396.6499,450.6935,396.372,450.57455,396.31232C450.4755,396.25262,450.37674,396.01434,450.3771,395.81592C450.37796,395.35962,448.87326,393.78937,447.98135,393.33136C447.03006,392.83362,446.79263,392.51563,446.57614,391.5829C446.4385,390.9477,446.08243,390.43115,445.07254,389.39758C444.35977,388.6621,443.64676,388.0656,443.52768,388.06537C443.4086,388.06512,443.19064,387.94562,443.072,387.78683C442.93344,387.62778,441.6453,386.89133,440.21823,386.17435C438.77133,385.4573,436.92813,384.5015,436.1155,384.08328C435.30295,383.64526,434.41086,383.2865,434.15292,383.286C433.43875,383.2846,432.34848,382.846,432.34903,382.5683C432.34933,382.40955,432.66684,382.35065,433.40073,382.4314C434.9678,382.57336,435.40433,382.51465,435.66293,382.15808C435.80215,381.9798,435.88187,381.80133,435.84225,381.7616C435.80264,381.70197,434.5134,381.5606,433.68033,381.4995C433.5811,381.49933,433.64084,381.3606,433.81973,381.2022C434.03848,380.96454,434.65353,380.9063,436.59775,380.91003L439.0975,380.91486L439.09897,380.16095C439.10068,379.28796,438.74405,379.02936,436.82077,378.45032C436.1664,378.25067,435.4725,378.01123,435.29416,377.91174C435.09592,377.81207,434.8184,377.73224,434.6597,377.73193C434.4811,377.73157,434.34268,377.4933,434.3038,377.0766C434.2454,376.50104,434.18594,376.4414,433.4719,376.38055C433.05533,376.3401,432.61874,376.39874,432.49948,376.51752C432.38028,376.6364,432.10233,376.73505,431.86423,376.73456C431.6262,376.73413,431.34824,376.83282,431.22897,376.9516C431.1097,377.07043,430.6133,377.26782,430.13705,377.36615C429.66068,377.46442,428.92636,377.6217,428.48965,377.73987C428.0529,377.8581,427.19955,378.03503,426.6041,378.13306C426.00882,378.251,425.334,378.40836,425.11557,378.5071C424.00363,378.96127,422.99118,379.2966,422.6539,379.296C422.4357,379.29556,422.23727,379.3547,422.19736,379.45383C422.09775,379.67184,419.23782,381.27335,418.94022,381.2728C418.8013,381.2725,418.64243,381.35153,418.58273,381.45053C418.4235,381.70822,416.29807,383.09286,415.48392,383.46835C415.10666,383.6461,414.43155,383.9424,413.99472,384.1201C413.55795,384.29782,413.0615,384.53494,412.90262,384.63382C412.74368,384.73276,412.0485,385.14798,411.35336,385.52353C410.65823,385.91898,410.04227,386.3741,409.9825,386.53262C409.92264,386.69125,409.7241,386.8099,409.5455,386.80954C409.36703,386.8093,409.04935,386.9476,408.85062,387.10593C408.41354,387.44235,407.2231,387.49954,407.04507,387.20163C406.9858,387.0825,406.7875,387.00272,406.60898,387.0024C406.4503,387.0021,406.03384,386.88223,405.69693,386.7427C404.30923,386.14487,403.61526,385.96506,402.28635,385.80374C397.4467,385.21896,396.8517,385.11868,395.64212,384.79892C395.14645,384.6592,393.99606,384.47836,393.06387,384.3575C392.1316,384.25653,391.06067,384.07593,390.68396,383.97598C389.25635,383.55667,382.33163,383.9996,381.3187,384.573C381.1201,384.6916,380.8818,384.7705,380.7628,384.77032C380.46518,384.7697,379.51584,383.24033,379.4377,382.6251C379.39853,382.32742,379.32047,381.69247,379.26193,381.19638C379.20334,380.7003,378.8679,379.72745,378.53207,379.0126C377.8801,377.6226,377.46634,376.0942,377.25192,374.1099C377.17392,373.4352,376.9966,372.76028,376.858,372.6212C376.73923,372.50186,376.62082,372.18423,376.6213,371.94614C376.62173,371.70816,376.48367,371.2515,376.3256,370.9537C376.14767,370.616,376.03012,369.842,376.0316,369.06833C376.03372,367.95737,375.95486,367.6993,375.57867,367.34143C375.32123,367.10297,374.98425,366.90387,374.82556,366.90356C374.34943,366.90265,374.05273,366.46564,374.05402,365.81097C374.0547,365.47375,373.976,365.1164,373.87695,365.01703C373.63928,364.77838,373.06873,362.31726,373.0702,361.56342C373.07306,360.0755,373.8905,357.97406,375.18365,356.09186C375.4026,355.75494,375.78073,355.08115,376.01993,354.56577C376.25882,354.07022,376.5375,353.59464,376.65677,353.51553C376.7759,353.43643,377.0944,352.9014,377.3732,352.32663C377.63223,351.7319,377.95078,351.19687,378.05008,351.13754C378.16916,351.07828,378.2491,350.80057,378.2496,350.54276C378.2501,350.28482,378.32996,350.02716,378.44916,349.94794C378.64777,349.82935,378.55695,345.48425,378.30298,343.44037C378.18585,342.42847,378.04755,342.15033,377.0775,341.03754C375.6919,339.4477,374.8993,338.93036,373.412,338.6101C371.9048,338.26984,371.76593,338.2696,370.93195,338.68463 Z M439.6564,389.46658C440.33017,389.86465,440.40878,390.2418,439.73502,389.8635C439.53677,389.76395,439.1403,389.6243,438.84286,389.54434C438.52554,389.48422,438.2877,389.34488,438.28793,389.2457C438.28854,388.9283,438.94296,389.02872,439.6564,389.46658 Z M444.2018,408.898C444.20163,408.9972,444.06253,409.09613,443.90384,409.09583C443.7451,409.09552,443.60648,408.99603,443.60666,408.89685C443.6069,408.77777,443.74582,408.69867,443.90457,408.69897C444.06326,408.69928,444.20206,408.77893,444.2018,408.898 Z"/> </g> <g style="fill:rgb(0,0,0); fill-opacity:1.0; stroke-linejoin: miter"> <path d="M187.41895,338.66852C187.1409,338.8266,186.64468,338.94476,186.3074,338.96393C185.89075,338.96313,185.51343,339.16083,185.09598,339.59656C183.92307,340.84418,183.80316,341.3001,183.75693,344.6927L183.73114,347.7874L184.7792,349.55518C185.3328,350.52835,185.80728,351.4022,185.80713,351.48148C185.80695,351.58072,185.86627,351.6602,185.96548,351.66037C186.04486,351.66055,186.20319,351.83945,186.302,352.0579C187.19138,353.80545,188.1207,355.434,188.49677,355.89108C188.75406,356.20895,188.9714,356.66574,188.97092,356.9236C188.97043,357.18155,189.06906,357.4595,189.16815,357.5192C189.50507,357.71823,190.35532,359.16812,190.35468,359.5054C190.35437,359.6641,190.45331,359.8032,190.55249,359.80338C190.67154,359.80362,190.75067,359.92282,190.7504,360.06168C190.74942,360.57748,191.6001,361.82895,193.22319,363.75656C194.09416,364.78983,195.12318,366.1409,195.7563,367.05472C196.58717,368.2863,197.12148,368.98184,197.79475,369.65762C198.1115,369.9955,198.70537,370.67114,199.06154,371.148C199.43758,371.62482,199.91258,372.20105,200.09077,372.39978C200.28874,372.61847,200.44691,372.89648,200.44664,373.0354C200.4459,373.4123,202.26653,375.8164,203.9692,377.6449C206.26573,380.1292,208.36398,382.59332,208.36359,382.79175C208.36267,383.26782,212.262,387.93756,214.71735,390.4024C216.06381,391.73422,216.51859,392.5286,217.16916,394.67252C217.3663,395.3276,217.60318,395.94308,217.68228,396.0623C217.74161,396.1616,217.87988,396.47922,217.95871,396.75717C218.0375,397.03513,218.27472,397.49185,218.4726,397.76993C218.67044,398.04807,218.88779,398.5048,218.94675,398.80252C219.02551,399.10025,219.16394,399.3386,219.24329,399.3387C219.32263,399.3389,219.44138,399.4979,219.50058,399.6766C219.57953,399.87503,220.03415,400.74893,220.52844,401.6227C221.2995,403.01297,222.30746,404.99887,222.68271,405.89236C222.74191,406.05124,222.97925,406.44846,223.17697,406.78604C223.6517,407.5012,223.6885,409.00906,223.29071,409.54398C223.13156,409.76193,222.99167,410.29727,222.99078,410.7535C222.9899,411.20987,222.9097,411.6462,222.81033,411.74515C222.39288,412.16104,221.82477,418.70688,222.1614,419.04477C222.28021,419.1641,222.37875,419.5015,222.37814,419.81894C222.37741,420.1959,222.61478,420.57327,223.22873,421.11008C226.00142,423.61514,232.06047,429.71744,232.19847,430.1741C232.27736,430.41238,232.61354,430.96835,232.95,431.40555C233.91975,432.63748,234.25536,433.49112,234.35188,434.8801C234.44835,436.30875,234.89867,439.38464,235.07637,439.84137C235.39235,440.5959,235.44908,442.02435,235.41954,447.0437C235.36815,453.1739,235.26457,455.43536,235.0254,456.0102C234.86595,456.36707,234.50069,460.61194,234.2545,464.83722C234.19319,465.76953,234.07256,466.6026,233.97313,466.72144C233.87376,466.82043,233.79326,467.39563,233.77226,468.01056C233.77025,469.04224,233.66978,469.71655,233.1894,471.9178C232.82921,473.5241,232.78896,473.82166,232.64787,474.95215C232.5872,475.54718,232.46706,476.1223,232.38747,476.2412C232.3079,476.3402,232.16762,477.09387,232.0868,477.8675C232.00587,478.6609,231.8856,479.3153,231.80626,479.3152C231.74672,479.31506,231.50758,479.87012,231.3079,480.54425C231.08833,481.23822,230.84904,481.87262,230.78929,481.99158C230.72957,482.09064,230.49028,482.72504,230.29063,483.37933C229.77144,485.1242,228.99355,487.28522,228.77455,487.68158C228.675,487.87976,228.59499,488.21686,228.59453,488.4549C228.5941,488.6731,228.47423,489.10938,228.31496,489.38678C227.77733,490.41742,227.53676,491.72638,227.45274,494.1267C227.34834,496.82465,227.30879,496.765,228.8755,497.06567C229.31181,497.1458,229.74806,497.26575,229.86699,497.3255C230.2434,497.5841,232.46458,498.00507,233.93251,498.107C235.59883,498.2094,237.32558,497.81598,238.47777,497.0445C238.85521,496.7873,239.45076,496.59003,239.84749,496.59082C240.24434,496.59155,240.83968,496.49347,241.21684,496.3553C241.5742,496.23694,241.89177,496.1582,241.95119,496.21783C241.9908,496.25757,241.98982,496.7536,241.92921,497.32886C241.82823,498.24115,241.74855,498.39978,241.19258,498.65662C239.86214,499.289,237.69377,502.35986,237.69136,503.60974C237.69084,503.8875,237.61101,504.14526,237.5117,504.2046C237.3726,504.30353,237.23116,505.6325,237.00575,509.3817C236.96483,510.03632,236.8639,510.909,236.78368,511.34528C236.68355,511.82123,236.72215,512.3966,236.87996,512.87305C237.07716,513.4686,237.09657,513.7067,236.91768,513.88495C236.77852,514.02356,236.67812,514.6384,236.67696,515.2534C236.67574,515.8883,236.59532,516.4436,236.49602,516.5029C236.39665,516.5821,236.25682,517.0778,236.17647,517.6133C236.09602,518.16864,235.97612,518.6049,235.8968,518.60474C235.71825,518.60443,235.25768,520.7858,235.3962,521.0044C235.51485,521.20294,235.09517,522.7694,234.83675,523.0467C234.75716,523.1656,234.6772,523.463,234.67668,523.7408C234.6762,523.99866,234.55644,524.3754,234.41728,524.5338C233.90025,525.1478,233.60008,526.49634,233.83711,527.0325C234.1335,527.648,234.13145,528.71936,233.87224,529.3934C233.77254,529.67096,233.6316,530.72217,233.55034,531.7338C233.46904,532.7455,233.34819,533.6777,233.2488,533.77673C233.08968,533.99457,232.84053,539.72766,232.91649,541.51337C232.99184,543.5768,232.93886,550.4807,232.8178,551.5319C232.61601,553.29724,232.41551,554.38806,232.23616,554.8043C232.13655,555.02234,231.95564,556.252,231.85399,557.52155C231.71153,559.36633,231.57146,560.0009,231.23308,560.5756C230.8351,561.2097,230.7949,561.4675,230.89125,562.9556C230.92915,563.8683,231.06636,564.7415,231.16527,564.8806C231.26427,564.9998,231.50111,565.61536,231.69835,566.2109C231.89561,566.8064,232.13234,567.5013,232.25096,567.71967C232.46834,568.17645,232.38634,569.5452,232.00471,571.96484C231.68321,574.08704,231.79826,576.1506,232.27345,576.64746C232.49132,576.84625,232.9066,577.5613,233.20287,578.2363C233.49913,578.91144,234.1519,579.92456,234.64674,580.50085C235.14156,581.0969,235.55705,581.69293,235.55678,581.8318C235.55653,581.97064,235.6356,582.0898,235.73482,582.08997C235.834,582.09015,235.95274,582.24915,236.03178,582.42786C236.34734,583.4006,238.99947,586.65936,239.4558,586.6602C239.57484,586.66046,239.81258,586.8395,240.01054,587.05804C240.38667,587.4754,241.39748,587.99316,242.924,588.55164C243.65755,588.8308,244.31215,588.8717,246.29622,588.81604C248.43898,588.74084,248.85576,588.6623,249.76924,588.2077C250.34514,587.91125,250.90114,587.6742,250.98045,587.6744C251.07967,587.67456,251.31804,587.5163,251.53673,587.29846C251.75526,587.1005,252.47038,586.6456,253.10588,586.28973C253.7613,585.9339,254.4168,585.51855,254.55598,585.3601C254.69514,585.22144,254.91359,585.10284,255.03258,585.1031C255.15163,585.1033,255.44963,584.9055,255.68816,584.648C255.94658,584.41046,256.52292,583.8958,256.99973,583.5198C260.09952,581.0061,261.98898,578.54974,262.23062,576.68524C262.51273,574.42413,262.75247,573.53186,263.09024,573.33405C263.28873,573.2353,264.02414,572.52246,264.7399,571.7501C265.45554,570.9976,266.37003,570.0074,266.78757,569.5718C267.205,569.1361,267.58304,568.58136,267.64297,568.3434C267.70297,568.1054,267.9216,567.86774,268.13998,567.8086C268.33853,567.7495,268.57693,567.5516,268.6567,567.3335C268.73648,567.13525,269.11453,566.52094,269.53226,565.9861C269.93008,565.4314,270.40768,564.6784,270.60684,564.3018C270.80594,563.92523,271.10446,563.42993,271.30325,563.21204C271.5021,562.99414,271.84036,562.45917,272.07938,562.02313C272.37796,561.46826,272.49722,561.34937,272.51657,561.6272C272.51614,561.84546,272.69382,562.2822,272.8915,562.61993C273.10916,562.93774,273.4056,563.53345,273.5834,563.91077C273.76126,564.2881,273.99844,564.7647,274.09732,564.9434C274.47284,565.6583,274.80768,566.889,274.66864,566.9879C274.58923,567.02747,274.46924,567.5232,274.38885,568.0587C274.3084,568.6141,274.16858,569.10974,274.0693,569.1692C273.7714,569.3471,273.82742,571.1526,274.14365,571.7881C274.59827,572.66187,275.05115,574.4085,275.04962,575.20215C275.04816,575.95605,275.4231,577.0081,275.70087,577.00867C275.99847,577.0092,275.81873,577.60406,275.122,578.83276C274.74377,579.5066,274.28607,580.2199,274.12704,580.3983C273.96805,580.5567,273.84848,580.81433,273.8483,580.9334C273.848,581.07227,273.7883,581.1713,273.68912,581.17114C273.6097,581.171,273.45062,581.369,273.35095,581.6069C273.23145,581.86456,272.95313,582.1417,272.71484,582.2604C272.45673,582.359,272.25806,582.51733,272.25787,582.59674C272.2577,582.69586,272.13855,582.7552,271.9997,582.75494C271.841,582.75464,271.52313,582.9723,271.26465,583.2495C271.00623,583.5268,270.68842,583.7444,270.52966,583.7441C270.39075,583.7438,270.27155,583.8627,270.2713,583.9816C270.25122,584.1205,269.95276,584.57623,269.57495,584.9921C268.95862,585.70514,268.87915,585.7447,268.44318,585.46606C268.18567,585.3069,267.47186,585.0674,266.85712,584.9472C265.90515,584.74695,265.58777,584.74634,264.81354,585.00275C264.31726,585.1804,263.80115,585.31824,263.6623,585.318C263.52338,585.31775,263.22552,585.4758,263.0069,585.6738C262.8081,585.8718,262.54987,586.0499,262.47052,586.04974C262.0736,586.0887,260.28436,588.0295,259.94568,588.7629C258.9892,590.94336,258.54694,593.95807,258.5381,598.5607C258.53125,602.13184,258.12744,605.7418,257.71082,605.74097C257.63147,605.74084,257.51184,606.0382,257.43182,606.39514C257.37164,606.7323,257.21198,607.24786,257.0924,607.5253C256.97284,607.80286,256.75366,608.2785,256.61414,608.61554C256.47467,608.93274,256.13593,609.7058,255.85698,610.32025C255.57802,610.93475,255.33879,611.56915,255.33846,611.74774C255.33809,611.9263,255.25838,612.1046,255.15904,612.16394C255.05974,612.2233,254.91835,613.51263,254.856,615.0005C254.77373,616.50806,254.69139,618.0752,254.6509,618.49176C254.61046,618.8884,254.64937,619.28534,254.74843,619.34503C254.84755,619.4048,254.92583,619.94055,254.92467,620.5357C254.92354,621.13086,255.0017,621.7659,255.12035,621.96454C255.21922,622.1433,255.43651,622.6199,255.6143,622.9971C255.77232,623.3743,256.08862,623.9503,256.3062,624.28796C256.52386,624.60583,256.7611,625.02295,256.84015,625.1818C256.99817,625.559,257.84964,626.3939,258.48373,626.7919C259.87076,627.64764,262.94492,628.1694,264.493,627.7955C265.28702,627.5986,267.37302,626.1147,267.57236,625.5992C267.63217,625.4406,267.87082,625.1633,268.0894,624.98517C268.3278,624.7873,268.7462,623.91516,269.06552,622.90393C269.38486,621.93243,269.76376,620.8817,269.92307,620.5844C270.08237,620.2673,270.2023,619.83105,270.20267,619.6327C270.2031,619.4144,270.3029,619.05756,270.4224,618.8395C270.62155,618.4431,270.6414,618.4431,271.01767,618.7811C271.2158,618.9601,271.39377,619.23816,271.39346,619.39685C271.39316,619.5357,271.49216,619.65497,271.59134,619.65515C271.71036,619.6554,271.78958,619.75476,271.78934,619.85394C271.78915,619.973,272.14505,620.549,272.58047,621.145C273.01572,621.741,273.37186,622.2774,273.37173,622.3369C273.37137,622.51544,273.78732,622.87335,274.36203,623.21173C275.1547,623.66956,277.21738,623.99097,278.16995,623.8142C278.6462,623.7358,279.8367,623.65875,280.82877,623.6408C282.19763,623.6435,282.71362,623.5651,282.89258,623.3472C283.03174,623.1888,283.2304,623.05023,283.32965,623.0504C283.58752,623.0509,284.8592,622.0217,286.44922,620.5369C288.33734,618.77484,290.26495,617.11206,290.44348,617.11237C290.5229,617.11255,290.682,616.89465,290.80157,616.61707C290.92114,616.3396,291.13983,616.1217,291.2588,616.12195C291.4969,616.12244,292.62976,615.05334,292.6302,614.8351C292.6303,614.7557,292.9088,614.37933,293.227,614.003C293.60474,613.5871,293.82385,613.1114,293.8246,612.7543C293.8252,612.4368,293.92493,612.1196,294.0243,612.06024C294.14343,612.001,294.22333,611.7234,294.22382,611.46545C294.2243,611.2076,294.34424,610.75146,294.50354,610.4344C295.08112,609.2848,295.44147,607.5992,295.765,604.42554C295.82562,603.83044,295.94586,603.2355,296.04523,603.1365C296.12482,603.0176,296.18488,602.74,296.14557,602.5415C296.10632,602.3232,296.28577,601.8871,296.54413,601.58997C296.80273,601.273,297.0218,600.81714,297.02234,600.5394C297.02283,600.2815,297.12244,600.0634,297.22168,600.0636C297.3407,600.06384,297.42035,599.9252,297.42065,599.7665C297.42096,599.6078,297.50085,599.3103,297.6203,599.1121C297.71985,598.9338,297.93903,598.4184,298.11847,597.9823C298.29785,597.54614,298.53687,597.0308,298.63647,596.8524C298.73602,596.65424,298.81598,596.3369,298.8164,596.13855C298.8172,595.7219,301.48096,592.9297,301.8778,592.9305C302.01666,592.9307,302.33447,592.71313,302.59296,592.43585C302.85138,592.1586,303.1494,591.941,303.22876,591.9411C303.56598,591.9418,303.98376,591.36725,303.98468,590.9109C303.98517,590.653,304.12476,590.25653,304.28387,590.03864C304.443,589.8405,304.5827,589.444,304.58325,589.14636C304.5838,588.86865,304.68353,588.5514,304.8028,588.4326C304.92206,588.3138,305.08228,587.5404,305.12354,586.7469C305.16473,585.95337,305.28534,585.12036,305.38495,584.90234C305.72382,584.0697,305.96417,582.8798,306.08582,581.531C306.14682,580.7773,306.28708,580.06335,306.3865,579.94446C306.46603,579.84546,306.7054,579.1714,306.88528,578.47736C307.26505,577.0298,307.20834,575.5815,306.69858,572.40625C306.5222,571.3147,306.32913,568.4972,306.23447,566.15594C306.16013,563.5569,306.00497,561.7115,305.8666,561.45337C305.72818,561.215,305.62985,560.75854,305.63052,560.4212C305.63113,560.1038,305.5524,559.7664,305.4335,559.70667C305.33444,559.647,305.23636,559.0516,305.23764,558.3969C305.23892,557.7422,305.10165,556.88885,304.94363,556.49176C304.7462,556.0152,304.64877,555.12225,304.6514,553.75336C304.65408,552.38446,304.55655,551.4915,304.35904,551.015C304.20114,550.6179,304.06363,549.9232,304.06448,549.4669C304.06607,548.6535,303.81015,547.58167,303.45444,546.8668C303.35562,546.6881,303.21768,546.172,303.15912,545.7156C303.08057,545.27905,302.96222,544.9217,302.86304,544.9215C302.76385,544.9213,302.68494,544.68304,302.68555,544.36566C302.68616,544.06805,302.54822,543.57184,302.39008,543.2541C302.232,542.9562,302.09424,542.3806,302.09497,542.00366C302.0957,541.6267,301.99744,541.13055,301.859,540.8922C301.64154,540.495,301.52344,539.9988,301.20898,538.4705C301.13025,538.1331,300.99225,537.6965,300.8935,537.4779C300.79468,537.2595,300.6375,536.44586,300.5199,535.6918C300.24634,533.56836,300.1084,533.05225,299.81128,532.7938C299.65283,532.67444,299.53455,532.2774,299.53528,531.92035C299.53595,531.56323,299.39813,531.00745,299.23993,530.70966C299.08185,530.39185,298.9439,529.93524,298.94434,529.69714C298.94482,529.45917,298.86597,529.2011,298.747,529.1413C298.64798,529.0816,298.5494,528.7442,298.55008,528.387C298.55136,527.7125,297.95975,525.86633,297.3669,524.65497C297.16928,524.2579,296.8751,522.4916,296.95535,522.05524C297.01566,521.63873,296.42227,520.70514,296.085,520.7045C295.94614,520.7042,295.51028,520.34625,295.1144,519.90906C294.57986,519.31287,294.40207,518.93555,294.40305,518.4396C294.40372,518.0626,294.3251,517.68555,294.20615,517.6258C294.1071,517.5661,294.0084,517.30804,294.00888,517.0501C294.00937,516.812,293.95035,516.5342,293.8712,516.4546C293.77213,516.37506,293.71292,516.236,293.69315,516.1766C293.65402,515.8789,293.33786,515.24347,293.15958,515.124C293.0803,515.06433,292.8441,514.0918,292.68753,512.98047C292.3544,510.81738,292.31424,511.05536,293.25043,509.15265C293.34998,508.95453,293.42993,508.65698,293.4303,508.47845C293.4311,508.042,294.00726,507.62646,294.64215,507.60785C294.91986,507.6084,295.31696,507.47034,295.53546,507.31195C295.7342,507.1537,296.1114,507.01556,296.32965,507.016C297.04382,507.01733,297.263,506.54163,297.14642,505.23193C297.0882,504.597,296.911,503.86267,296.7329,503.60437C296.55487,503.3659,296.41718,502.7705,296.41815,502.25464C296.4193,501.6595,296.2616,501.1037,295.92535,500.56738C295.66833,500.13043,295.43127,499.5943,295.43164,499.3761C295.41223,499.15778,295.23462,498.70117,295.03687,498.3833C294.83905,498.04572,294.46338,497.41016,294.2262,496.93353C293.96918,496.47668,293.73187,496.09937,293.65247,496.09918C293.59296,496.09906,293.3952,495.76135,293.2373,495.36432C293.07935,494.96722,292.7633,494.2326,292.52618,493.73615C291.97284,492.64386,291.95422,492.00897,292.49048,491.69263C292.9076,491.4157,293.8435,489.63196,294.2627,488.2638C294.40247,487.8277,294.6219,487.19318,294.7614,486.87604C294.90088,486.53906,295.12036,485.92444,295.26,485.48822C295.6194,484.31842,296.3963,482.67328,296.65454,482.515C296.77368,482.4359,297.05237,481.96033,297.29144,481.46478C297.53046,480.94946,297.80914,480.47382,297.8886,480.41443C297.9879,480.3551,298.1079,479.83954,298.18842,479.2644C298.24896,478.70892,298.38885,478.19348,298.46832,478.13403C298.5677,478.0747,298.64752,477.77728,298.64813,477.47974C298.64868,477.18213,298.72864,476.8648,298.82806,476.74603C298.9275,476.64697,299.04865,475.55603,299.09073,474.32623C299.1528,472.99707,299.27365,472.0053,299.41287,471.86676C299.55203,471.7281,299.6523,471.1728,299.65335,470.63715C299.6544,470.08167,299.79465,469.3678,299.95395,469.0506C300.11325,468.7533,300.25333,468.1187,300.25424,467.6624C300.25504,467.22595,300.39536,466.49213,300.5549,466.05603C300.71445,465.6198,300.83536,464.6678,300.8566,463.93378C300.858,463.1997,300.95847,462.54523,301.0577,462.4859C301.1769,462.42664,301.25705,462.01013,301.25784,461.5935C301.25864,461.17688,301.35867,460.76044,301.45798,460.70117C301.57718,460.64178,301.65714,460.30475,301.6578,459.96747C301.65903,459.3128,302.79465,456.83508,303.09225,456.83563C303.17154,456.83575,303.25113,456.73676,303.2513,456.63757C303.25156,456.51855,303.53024,456.06274,303.84848,455.60706C304.1866,455.17126,304.44534,454.71545,304.44553,454.61627C304.44656,454.08063,305.40054,453.22937,306.8502,452.49805C307.7438,452.06342,308.61746,451.68805,308.796,451.68842C309.17294,451.68915,310.32443,451.27472,310.9401,450.93866C311.17844,450.8003,311.51584,450.70172,311.6746,450.70203C311.85318,450.70233,312.15085,450.6236,312.34952,450.50488C312.5283,450.406,313.04446,450.18884,313.4813,450.0111C313.91812,449.83337,314.43442,449.59637,314.63303,449.47766C317.3339,448.05444,319.65683,447.14636,320.58926,447.1482C321.04556,447.14905,321.95877,446.85315,323.11044,446.29987C323.74588,446.00348,324.30246,445.4491,324.30307,445.11188C324.30338,444.97296,324.44284,444.6756,324.60196,444.4577C324.76108,444.25958,324.9006,443.9027,324.90103,443.66473C324.9019,443.2481,325.55807,442.41605,325.89548,442.37704C326.2924,442.31827,326.39163,442.27878,326.64987,442.1404C326.7889,442.04153,328.99118,441.9863,331.55038,441.99118C334.0898,442.01596,336.23257,441.96048,336.29227,441.86142C336.33206,441.78214,338.33597,441.6868,340.71683,441.6517C343.09756,441.63644,345.71652,441.52243,346.53018,441.40494C349.60605,440.99423,350.85623,440.85788,353.27695,440.6641C354.6461,440.5477,355.95584,440.37167,356.2139,440.27292C356.47208,440.1544,357.2261,440.07657,357.9205,440.0779C358.595,440.0792,359.22992,440.02084,359.28955,439.94156C359.36908,439.88223,359.62714,439.78354,359.88513,439.76413C360.12323,439.74472,360.89722,439.62723,361.61163,439.5096C362.3261,439.39194,363.99286,439.21652,365.32236,439.11996C366.65182,439.00345,367.92184,438.82742,368.14035,438.70877C368.3785,438.61008,368.7361,438.41232,368.9545,438.31363C369.17294,438.19504,369.55008,438.11636,369.80795,438.11685C370.32376,438.11783,371.25735,437.54434,372.0922,436.69284C373.0662,435.74246,373.3055,435.10794,373.36807,433.50113C373.43338,430.50558,372.44272,429.8093,368.13773,429.78116C366.1736,429.77737,365.79672,429.73697,365.7972,429.47903C365.79758,429.3005,365.63956,428.94308,365.46152,428.64505C365.12527,428.14847,365.10538,428.1484,363.4387,428.26425C361.59335,428.41946,361.23593,428.57748,359.14957,430.2598C357.8381,431.32858,357.81827,431.32852,357.36026,432.2006L356.962,432.9537L355.57346,432.87167C354.20474,432.7698,351.4877,432.28848,350.9128,432.0493C350.75424,431.9894,349.9014,431.84897,349.02872,431.7283C348.15598,431.62735,347.00565,431.44656,346.45035,431.34628C343.95163,430.80582,342.6821,430.72403,336.82962,430.71277C333.39737,430.70618,330.08432,430.66003,329.48923,430.61926C327.62454,430.4967,325.64108,430.2746,325.32394,430.15497C324.86795,429.97552,324.90762,429.9756,323.67783,429.81445C323.06302,429.71417,322.48795,429.57416,322.42862,429.47485C322.3693,429.37555,322.09177,429.29572,321.814,429.29517C321.5363,429.29468,321.0405,429.17462,320.70352,429.0152C320.3467,428.85583,319.7122,428.67603,319.27585,428.61566C318.08585,428.4547,315.76553,427.99396,315.30954,427.8145C315.09152,427.73468,314.7148,427.57526,314.45712,427.47552C314.19943,427.37585,313.82266,427.29572,313.6044,427.2953C313.3663,427.29486,312.91025,427.175,312.57333,427.01563C311.0073,426.33807,305.69116,425.93103,304.67847,426.40527C303.22882,427.09686,302.67297,427.2942,302.31616,427.1745C302.09802,427.09473,301.91974,426.95544,301.91992,426.85626C301.9201,426.75708,301.8211,426.6776,301.68225,426.67737C301.56317,426.67712,301.04803,426.3388,300.55286,425.92114C300.05762,425.5036,299.32452,425.02606,298.94794,424.84674C295.41962,423.23303,295.59808,423.29285,293.49554,423.07056C292.6228,422.96967,291.73016,422.8886,291.51202,422.88818C291.03583,422.88727,290.2232,422.48895,290.2237,422.25085C290.22382,422.1715,290.40326,421.7155,290.60254,421.2398C290.8217,420.784,291.06113,420.0901,291.1213,419.7132C291.34146,418.74158,291.85928,417.67126,293.11288,415.74915C293.70987,414.7981,294.1879,413.8269,294.20834,413.52936C294.2089,413.2317,294.2888,412.93427,294.40793,412.875C294.52713,412.81573,294.60715,412.4588,294.60788,412.0818C294.6086,411.7049,294.52994,411.34766,294.41098,411.2879C294.31192,411.2282,294.21335,410.93042,294.2139,410.63275C294.21445,410.3352,294.07657,409.83893,293.89865,409.50134C293.48355,408.6872,293.4893,405.71124,293.92667,405.2558C294.0858,405.05768,294.2252,404.76044,294.22556,404.58185C294.22586,404.40326,294.3254,404.20502,294.42477,404.1458C294.5439,404.0865,294.62424,403.59064,294.6252,403.07477C294.62625,402.55896,294.76627,401.9641,294.92538,401.74615C295.30325,401.25092,295.30582,399.94153,294.93027,399.20673C294.77213,398.90887,294.63425,398.39276,294.63486,398.07532C294.6354,397.77777,294.55667,397.46014,294.4377,397.4004C294.33865,397.3407,294.24002,397.0628,294.2405,396.8247C294.241,396.56677,294.10275,396.24908,293.9443,396.10986C293.7858,395.97076,293.64737,395.7721,293.64755,395.65308C293.6478,395.55383,293.4501,395.17657,293.19284,394.83875C292.4805,393.84546,292.26358,393.17047,292.12784,391.54333C292.0508,390.333,292.09146,389.857,292.35025,389.3615C292.5295,389.0047,292.66922,388.58838,292.66953,388.4297C292.66977,388.29083,292.8882,388.17224,293.16592,388.17273C293.44376,388.17328,293.66214,388.07446,293.66238,387.97528C293.66257,387.8562,293.94046,387.7774,294.2579,387.778C294.7737,387.779,294.85324,387.69983,294.8541,387.26337C294.85587,386.33087,293.86627,385.1188,292.93433,384.85916C292.43854,384.7391,291.74664,383.48795,291.3329,381.97934C291.09656,381.08615,290.74017,380.68863,290.0263,380.50876C289.72882,380.44864,289.25348,380.03104,288.937,379.5543C287.73022,377.80618,286.18427,376.98972,285.54797,377.7424C285.34912,377.9802,285.36865,378.1389,285.6258,378.53622C285.80383,378.81418,286.04144,379.03293,286.14063,379.0331C286.41846,379.03366,286.99255,379.6498,287.24933,380.24545C287.56543,380.94046,287.1676,381.47537,286.47357,381.31528C286.19592,381.23538,285.91852,381.0563,285.85938,380.8975C285.66193,380.38132,284.66956,380.57785,283.83496,381.2903L283.05994,381.9634L282.70422,381.22867C282.50665,380.83145,282.20996,380.33493,282.0517,380.11636C281.77466,379.75876,281.71515,379.7388,281.23846,380.0156C280.8214,380.2529,280.66217,380.55026,280.50177,381.40292C280.28143,382.45395,280.2616,382.49368,279.5869,382.55185C279.03137,382.59048,278.77368,382.4908,278.3777,382.05356C277.6848,381.2983,276.4582,379.5104,276.41913,379.19296C276.34088,378.61746,276.44043,378.41928,276.79755,378.41995C276.9959,378.42032,277.43268,378.28232,277.73053,378.12418C278.04828,377.96616,278.485,377.82803,278.72314,377.82852C279.15955,377.82938,279.99426,377.07706,279.99506,376.68033C279.9956,376.38266,279.51947,376.38174,278.50708,376.67746C277.5146,376.95322,277.0385,376.93246,276.30518,376.53427C275.98804,376.3749,275.53204,376.2352,275.29395,376.23477C274.77814,376.23373,274.71906,376.0352,275.07678,375.6788C275.27557,375.48087,275.27582,375.34195,275.0583,375.00424C274.82098,374.62686,274.86078,374.54758,275.37738,374.15182C276.94702,372.905,276.94702,372.905,276.6302,372.58688C276.4718,372.42783,275.83746,372.16873,275.24255,372.00888C274.54852,371.829,274.1324,371.61002,274.09314,371.39163C274.05377,371.21298,274.15326,371.0743,274.35168,371.07468C274.72858,371.0754,275.64233,370.5018,275.64276,370.26382C275.6433,369.986,274.2166,369.09055,273.4234,368.87076C272.5509,368.6508,271.71704,368.98654,270.3062,370.15433C269.82928,370.5502,269.3327,370.86667,269.174,370.86636C269.01526,370.86606,268.8365,370.98465,268.77667,371.14328C268.57733,371.65878,268.0614,371.67764,267.0902,371.2194C266.555,370.98026,266.11902,370.7216,266.11914,370.64224C266.11932,370.5629,265.88168,370.36407,265.60428,370.1651C265.2278,369.92627,265.02945,369.88623,264.83078,370.06445C264.63205,370.22284,264.47348,370.14313,264.17673,369.72583C263.7809,369.18945,263.7413,369.1695,261.95572,369.20575C260.34866,369.24237,260.1105,369.30145,259.7725,369.6975C259.55374,369.95502,259.3942,370.3714,259.37393,370.60944C259.37344,370.8673,259.2535,371.32343,259.09427,371.6009C258.93503,371.89813,258.75565,372.2945,258.6957,372.51263C258.59592,372.79028,258.457,372.84955,258.02072,372.7296C256.85086,372.4099,255.8592,372.24927,255.00615,372.22778C254.49034,372.2268,254.01436,372.14655,253.91539,372.04718C253.79655,371.92792,253.04292,371.7876,252.2098,371.7066C250.78166,371.58484,250.66258,371.6045,250.4634,372.00085C250.28423,372.31793,250.3037,372.5163,250.56087,372.9137C250.75862,373.23145,250.79796,373.41003,250.6591,373.4098C250.54005,373.40955,250.38158,373.2704,250.32237,373.11157C250.24336,372.9527,250.00557,372.81342,249.76747,372.81293C248.65648,372.83063,248.1978,374.03998,248.7307,375.4892C249.06627,376.34296,249.06615,376.40253,248.66835,376.9572C248.42964,377.27417,248.25032,377.6706,248.24998,377.84918C248.24895,378.38483,247.75288,378.42352,246.86107,377.96558L246.00877,377.5274L246.1458,378.49982C246.28252,379.61108,245.98387,380.16595,245.07072,380.44202C244.17744,380.71796,243.74016,381.1338,243.4409,381.98627C243.28133,382.44226,243.04192,383.1363,242.90236,383.51288C242.76271,383.88953,242.602,384.92087,242.54085,385.79373C242.45872,387.22202,242.49791,387.47995,242.93282,388.29422C243.20955,388.79068,243.48601,389.4857,243.56474,389.8231L243.68254,390.43832L242.82957,390.39706C242.0559,390.3558,241.97646,390.39542,241.91609,390.8317C241.87593,391.10934,241.71648,391.50583,241.5572,391.76346C241.21901,392.25882,241.37495,393.68753,241.79091,394.04544C241.94936,394.16476,242.06798,394.38327,242.06776,394.50235C242.06749,394.6412,242.38399,395.11795,242.77989,395.59482C243.3539,396.27042,243.47246,396.52853,243.37242,396.96487C243.29247,397.2623,243.17235,397.81754,243.0923,398.19437L242.9521,398.88852L242.31859,398.1929C241.98201,397.81522,241.52678,397.27872,241.32884,397.02048C240.85387,396.42435,240.55598,396.58243,240.2564,397.61362C240.05684,398.20834,240.05638,398.44644,240.2346,398.62527C240.55144,398.9434,240.53056,399.47903,240.17213,400.1727C239.77391,400.92587,239.65486,400.92563,239.20012,400.1113C238.78487,399.3962,238.07191,398.72037,236.3882,397.3879C235.00154,396.2941,233.91248,395.2007,232.74484,393.7106C232.25003,393.09464,231.73541,392.45877,231.61667,392.31967C231.47809,392.1606,231.35934,392.0018,231.3595,391.92245C231.35962,391.86295,230.72653,390.949,229.935,389.89603C229.16327,388.84305,228.4115,387.7504,228.25336,387.45248C228.11508,387.1547,227.7985,386.69785,227.5411,386.43936C227.00659,385.84317,225.62158,383.91614,225.62189,383.7574C225.62204,383.67804,224.63211,382.6247,223.40439,381.4121C222.19656,380.1996,220.67203,378.56976,220.0188,377.8147C219.3656,377.03967,218.6528,376.3042,218.45468,376.16498C218.25656,376.0257,218.09824,375.80725,218.09842,375.708C218.09897,375.43024,216.99072,374.0196,215.82251,372.82697C215.2879,372.2704,214.19888,371.1573,213.42673,370.34235C212.19919,369.0504,209.48622,366.44638,206.63432,363.8618C206.1393,363.3846,205.18867,362.50992,204.55498,361.91348C203.90144,361.3171,203.30724,360.81992,203.20802,360.81973C203.12865,360.81955,203.04948,360.72018,203.04973,360.60117C203.04994,360.48215,202.47594,359.7867,201.7631,359.07108C201.05031,358.33566,200.47633,357.62033,200.47658,357.5013C200.47685,357.36246,200.39772,357.24326,200.29854,357.24307C200.19933,357.2429,199.74449,356.48807,199.30983,355.55478C198.6775,354.22433,198.5395,353.78757,198.6791,353.41098C199.11778,352.26114,198.79039,347.12216,198.27457,347.12115C198.19522,347.12103,198.11618,346.9621,198.11661,346.74384C198.117,346.5454,197.97906,346.04932,197.82108,345.672C197.66315,345.27484,197.52536,344.6994,197.52594,344.40173C197.52704,343.82635,197.1131,342.43683,196.67831,341.56305C195.98672,340.1134,194.73785,339.59528,193.66519,340.28748C193.26791,340.54468,193.10916,340.56427,192.89133,340.36542C192.21786,339.8086,189.04633,338.37408,188.51068,338.37305C188.1932,338.39227,187.69702,338.51038,187.41895,338.66852 Z M261.07858,371.3864C261.05746,372.06097,261.1168,372.14044,261.6127,372.2008C261.9102,372.2411,262.1481,372.34076,262.14792,372.43994C262.14774,372.53912,262.20688,372.73767,262.26602,372.91638C262.36472,373.17444,262.2059,373.23364,261.31314,373.23193L260.22195,373.22986L260.32315,372.17853C260.465,370.65118,261.12094,369.97797,261.07858,371.3864 Z"/> </g> <g style="fill:rgb(0,0,0); fill-opacity:1.0; stroke-linejoin: miter"> <path d="M117.5774,342.48203C117.299324,342.66006,116.66422,342.77786,116.16819,342.79678C115.67221,342.7958,115.19595,342.8544,115.116455,342.93362C114.89783,343.15146,114.40167,343.2299,113.03265,343.28677C112.338196,343.3251,111.4848,343.4821,111.14722,343.64023C110.80963,343.81802,109.99579,344.05453,109.34088,344.1724C108.68594,344.2902,107.872154,344.46713,107.53466,344.5856C107.19721,344.68405,106.720924,344.76248,106.46302,344.762C105.986855,344.76108,104.277565,346.38455,104.27668,346.8409C104.27645,346.96,104.09736,347.23734,103.87876,347.43533C103.66015,347.63327,103.481026,347.93057,103.48072,348.08926C103.480446,348.22818,103.360695,348.60483,103.22129,348.8823C102.66367,349.97244,102.22558,350.82468,101.86729,351.43893C101.508995,352.05338,101.20858,353.52084,100.92606,356.00027C100.7649,357.26968,100.366875,357.9235,99.6125,358.16013C99.155945,358.2982,97.108826,360.19882,97.10829,360.47653C97.10811,360.5757,96.94879,360.8929,96.73003,361.1702C96.49127,361.52682,96.3313,362.18124,96.27002,363.09366C96.209015,363.86728,96.04872,364.6804,95.88957,364.91824C95.67064,365.27487,95.67023,365.493,95.867584,366.0292C96.203064,366.9622,96.16287,367.22006,95.6861,367.55637C94.93117,368.09058,94.691605,368.8639,94.56781,371.34363L94.444214,373.70422L93.46892,375.34906C92.951385,376.24078,92.513306,377.07312,92.51308,377.1922C92.51285,377.31122,92.37326,377.688,92.194,378.04468C91.95507,378.50055,91.91454,378.937,92.0125,379.5918C92.11046,380.22693,92.070145,380.5641,91.85143,380.80164C91.1157,381.67322,91.01476,382.5857,91.407814,384.5108C91.4865,384.86804,91.4261,385.32425,91.24689,385.6611C91.047745,386.05753,90.98723,386.57327,91.04523,387.3669C91.14247,388.37894,91.08249,388.61685,90.52513,389.58792C90.186676,390.2023,89.90761,390.8763,89.90715,391.1143C89.90672,391.33255,89.82689,391.59042,89.70775,391.6497C89.60843,391.709,89.508484,392.10556,89.50772,392.50235C89.50691,392.91904,89.366394,393.77176,89.2065,394.38644C89.04657,395.02097,88.905975,395.91354,88.905106,396.36984C88.90419,396.84604,88.80406,397.322,88.684784,397.4407C88.50589,397.61893,88.50546,397.8372,88.683105,398.31363C88.80151,398.6512,88.8983,399.90128,88.89609,401.0519C88.89307,402.61917,88.97107,403.31363,89.2083,403.7507C89.386246,404.0684,89.66304,404.56497,89.80133,404.86282C89.93967,405.14072,90.295944,405.57797,90.5732,405.83646C90.85043,406.09482,91.06807,406.41263,91.06781,406.55154C91.067535,406.69046,91.18631,406.8295,91.32507,406.88937C91.50348,406.9492,91.54207,407.52463,91.51933,409.03232C91.47589,410.97647,91.51524,411.15512,92.0491,412.08865C93.15639,414.0151,94.02586,415.8024,94.02515,416.1793C94.024765,416.37772,94.12355,416.5961,94.22264,416.6558C94.34154,416.71555,94.42041,416.9736,94.41995,417.21176C94.419495,417.44974,94.63658,418.04532,94.913376,418.54196C95.17032,419.03842,95.44702,419.59445,95.52603,419.7731C95.58516,419.9716,95.723724,420.13058,95.82291,420.13083C95.922104,420.131,96.00121,420.27,96.00091,420.42862C96.0006,420.5874,96.3561,421.42133,96.79087,422.2951C97.225685,423.149,97.581184,423.9829,97.58091,424.12183C97.58007,424.5583,98.211876,426.14667,98.64713,426.78235C99.121956,427.45782,99.47796,428.0338,99.675514,428.4707C99.754555,428.62958,100.0317,428.9475,100.28919,429.16626C100.5467,429.3849,100.74453,429.6631,100.74438,429.7425C100.74418,429.84167,101.19944,430.398,101.73399,430.97437C102.288376,431.55078,102.723694,432.1468,102.72336,432.32538C102.72305,432.48407,103.01921,433.2187,103.394714,433.97333C103.9283,435.04565,104.08591,435.62128,104.143295,436.73242C104.200806,437.76422,104.31891,438.26044,104.61571,438.65768C104.991745,439.13455,105.03093,439.39255,104.96771,441.31686C104.88379,443.67752,104.74289,444.72873,104.444626,445.0853C104.166245,445.42215,104.41713,449.05313,104.79164,450.32358C104.988785,450.97867,105.02727,451.59372,104.94685,452.14908C104.786606,452.94235,104.78592,453.29947,104.882095,454.86697C104.901215,455.24387,104.80069,455.91824,104.66101,456.35446C104.54111,456.79068,104.34076,457.82193,104.22014,458.6351C104.09947,459.48795,103.85974,460.3406,103.64096,460.6378C103.441986,460.93497,103.262436,461.45047,103.26175,461.8076C103.26109,462.1448,103.041626,462.79904,102.78282,463.2549C102.52405,463.71072,102.16525,464.58292,101.9657,465.1777C101.766174,465.77255,101.48674,466.64487,101.32715,467.10092C101.16753,467.57675,101.06703,468.25113,101.10602,468.60825C101.1642,469.30276,100.90541,469.75858,99.37442,471.5015C98.00249,473.08597,97.88277,473.4429,98.39656,474.47543C98.65349,474.99167,98.67291,475.21,98.49347,475.66592C98.31419,476.04257,98.31358,476.36002,98.47154,476.7571C98.570145,477.0549,98.668365,477.57083,98.667725,477.90817C98.66702,478.26523,98.8645,478.7418,99.16141,479.09952C99.59686,479.61606,99.65588,479.8741,99.65347,481.12402C99.651825,481.97705,99.74974,482.6518,99.88835,482.79102C100.06656,482.9699,100.04617,483.24756,99.76695,484.02075C99.56752,484.55603,99.46735,485.07172,99.52661,485.1908C99.58594,485.2901,99.44643,485.62714,99.18791,485.9441C98.4919,486.79584,98.053955,487.5489,98.053345,487.86627C98.05304,488.02502,97.89401,488.20325,97.695496,488.2624C97.49695,488.34137,97.03998,488.6977,96.66229,489.07385C96.04607,489.70752,95.98623,489.86615,95.86407,491.49274C95.701614,493.43658,95.85893,494.15112,96.61128,494.966C97.04683,495.443,97.086136,495.62158,96.985275,496.49432C96.92474,497.0299,96.76477,497.66443,96.66518,497.8825C96.545685,498.1203,96.36647,498.45728,96.26688,498.67523C96.16728,498.87347,96.00758,499.38898,95.92743,499.80548C95.86705,500.24182,95.72737,500.65814,95.64778,500.77704C95.58809,500.87616,95.34897,501.41138,95.149506,501.96643C94.95012,502.5017,94.730835,503.03693,94.65126,503.15582C94.57172,503.25488,94.43208,503.65143,94.35208,503.98853C94.291855,504.34546,94.13257,504.64276,94.03339,504.64258C93.93417,504.6424,93.85431,504.9002,93.8537,505.2176C93.85304,505.55487,93.75325,505.87207,93.65396,505.9314C93.53479,505.99078,93.45506,506.18896,93.45473,506.3675C93.45415,506.6651,93.07529,507.6563,92.53769,508.66705C92.37836,508.9842,92.25809,509.61877,92.25722,510.07507C92.25633,510.53143,92.156235,511.0074,92.01709,511.14606C91.67917,511.4826,91.64218,520.3904,91.97879,520.72833C92.1174,520.86743,92.23555,521.324,92.23476,521.74054C92.23395,522.15717,92.37155,522.83203,92.52948,523.2291C92.687485,523.6063,92.82526,524.18195,92.824646,524.4994C92.824036,524.8168,92.90257,525.23364,93.02124,525.4322C93.12009,525.61096,93.33734,526.1272,93.53485,526.564C93.71257,527.00085,93.929794,527.5369,94.0087,527.7553C94.10748,527.97363,94.24544,528.4501,94.32405,528.8272C94.38287,529.2043,94.520966,529.6013,94.619934,529.7205C94.7189,529.8397,95.01576,530.2173,95.29285,530.55505C95.56993,530.9127,95.78746,531.2702,95.78731,531.34955C95.787125,531.4488,96.519554,532.3033,97.43035,533.2375C99.509315,535.404,100.53863,536.5964,100.53829,536.7749C100.53814,536.85425,100.75585,537.1324,101.03309,537.39087C101.31037,537.6493,101.52805,537.9275,101.527855,538.0267C101.52737,538.28455,103.24958,540.25195,107.13004,544.42566C108.23878,545.59827,109.18897,546.6714,109.22849,546.7707C109.3469,547.0884,113.406235,551.1037,113.624435,551.1041C113.72365,551.1043,113.80278,551.2235,113.802475,551.38226C113.80217,551.54095,113.88124,551.6998,113.98033,551.7397C114.05968,551.75964,114.63353,552.51465,115.24687,553.3888C115.860214,554.2629,116.434006,555.0774,116.51311,555.1966C116.94847,555.7728,117.165634,556.32874,117.28325,557.063C117.36177,557.4996,117.48012,557.85693,117.57933,557.8571C117.67851,557.8573,117.757645,557.95667,117.75743,558.0757C117.75682,558.3931,118.389145,559.70374,118.68614,560.00195C118.824814,560.141,118.943375,560.3794,118.94307,560.5381C118.94252,560.8158,119.93059,562.8413,120.14845,563.02026C120.20787,563.0799,120.385925,563.33813,120.504486,563.5764C120.74167,564.03314,120.54288,564.25104,116.60715,568.19147C114.341064,570.46857,112.25423,572.3891,111.976326,572.4679C111.69843,572.5467,110.50794,572.6237,109.29774,572.6214C107.41297,572.63763,107.016075,572.6964,106.42019,573.0722C106.04279,573.3096,105.60586,573.54675,105.48672,573.6061C105.347725,573.66534,105.109505,573.7442,104.99035,573.8035C103.858635,574.2576,100.46105,576.8897,100.46021,577.3262C100.45971,577.5841,98.65116,579.2471,98.35357,579.24646C98.19483,579.24615,97.51978,579.5227,96.84464,579.8388C96.18929,580.1748,95.35555,580.4311,94.998436,580.43036C94.62151,580.4296,94.284096,580.50836,94.22436,580.6075C94.16471,580.6867,93.549,581.04266,92.83413,581.37854C92.13911,581.7144,91.50358,582.0704,91.424,582.1892C91.36425,582.30817,91.145805,582.4069,90.96728,582.40656C90.78869,582.4261,90.19265,582.8614,89.63613,583.39594C89.0994,583.95044,88.48354,584.3857,88.305,584.3853C88.12646,584.385,87.92791,584.464,87.86819,584.56305C87.808495,584.6622,87.51061,584.8005,87.21288,584.8792C86.915184,584.9381,86.57749,585.15576,86.438286,585.33405C86.259224,585.5916,85.882225,585.63055,84.55303,585.60815C81.120995,585.5222,78.36029,587.104,76.92633,589.9779C76.24921,591.3257,76.22919,591.42487,76.224915,593.64685C76.2209,595.7299,76.26007,595.988,76.636215,596.40533C76.89363,596.66376,77.110825,597.1998,77.14955,597.69586C77.22754,598.4102,77.89862,600.1971,78.61038,601.46814C78.7092,601.6667,78.78807,601.9248,78.78787,602.024C78.78685,602.55963,79.617325,603.9897,80.15215,604.4272C80.488914,604.68567,80.76592,605.0631,80.76559,605.2417C80.765236,605.4202,81.00248,605.8572,81.31922,606.2149C81.83381,606.8507,81.85349,606.9302,81.86822,609.5886C81.88375,611.83044,81.94221,612.3861,82.219444,612.6446C82.41743,612.86316,82.535576,613.3197,82.534355,613.9546C82.53321,614.54974,82.6905,615.2841,82.927666,615.7607C83.14501,616.21735,83.32261,616.71375,83.322334,616.8526C83.32177,617.1502,83.91445,618.4409,84.48794,619.4141C84.7055,619.75183,85.0214,620.546,85.218605,621.1614C85.41584,621.77673,85.633095,622.2732,85.73229,622.2734C85.81167,622.27356,85.89083,622.37286,85.8906,622.4919C85.89037,622.6109,86.16715,623.1075,86.48362,623.60406C86.81997,624.0809,87.0769,624.59717,87.07667,624.7162C87.07641,624.8551,87.47222,625.3518,87.94744,625.8288C88.44251,626.30597,88.87783,626.902,88.9369,627.14014C89.11411,627.83484,91.39155,629.9422,92.62046,630.5398C93.21505,630.8385,93.86913,631.1572,94.04752,631.2369C94.24572,631.3365,94.50349,631.4164,94.602684,631.41656C94.72173,631.4168,95.23716,631.61615,95.752525,631.8552C96.981445,632.43286,99.85779,632.61694,100.81094,632.1625C101.76413,631.6882,103.3349,629.8858,103.33617,629.23114C103.33635,629.1319,103.55533,628.7356,103.833755,628.37897C104.11221,628.02246,104.331345,627.5666,104.33176,627.3483C104.33214,627.1499,104.471664,626.7931,104.63078,626.595C105.00868,626.0998,105.01112,624.8301,104.6366,623.57947C104.4395,622.90454,104.34296,621.53546,104.327835,619.0753C104.293976,616.05975,104.33473,615.50433,104.63289,615.20734C104.85161,614.9498,104.95174,614.47394,104.95337,613.62085L104.9557,612.4106L106.00694,612.5317C107.13754,612.6529,108.13028,612.258,108.13138,611.6827C108.13168,611.524,108.23111,611.40515,108.35013,611.4054C108.46918,611.4056,108.90622,611.1088,109.32352,610.7525C110.476105,609.7628,110.97275,609.42645,111.25049,609.427C111.488556,609.4275,112.044556,609.17065,112.58093,608.79474C112.91867,608.5573,114.74687,606.99347,115.22395,606.5182C115.46245,606.28064,116.55452,605.8065,117.70589,605.45166C118.83742,605.09674,119.88954,604.7417,120.04845,604.66266C120.20729,604.5836,120.9619,604.2279,121.69661,603.8723C122.45122,603.4967,123.18617,603.0419,123.36507,602.8636C123.54402,602.6656,123.782364,602.5073,123.90141,602.50757C124.02043,602.5078,124.49724,602.17145,124.9543,601.7557C125.43123,601.3598,126.14647,600.8454,126.543625,600.6279C126.96068,600.4105,127.47719,600.05444,127.69585,599.8366C127.914474,599.61884,128.41115,599.26263,128.78847,599.06494C129.16583,598.8475,129.70224,598.47156,129.9805,598.21423C130.25873,597.95685,130.57654,597.75903,130.7154,597.75934C130.8543,597.7595,130.9735,597.6606,130.97368,597.56134C130.97392,597.4424,131.0931,597.3632,131.23201,597.36346C131.37083,597.3638,131.76817,597.0868,132.1259,596.77C132.48366,596.4335,132.8611,596.17633,132.98012,596.1765C133.07933,596.1767,133.15886,596.07764,133.15907,595.97845C133.15929,595.8594,133.25865,595.7803,133.35783,595.78046C133.47688,595.7807,134.0529,595.4247,134.64891,594.9893C135.24492,594.5541,135.78127,594.198,135.84077,594.19806C135.90028,594.1982,136.05919,594.11914,136.19826,594.00037C136.33736,593.9014,136.7546,593.565,137.13213,593.2681C137.50969,592.9514,138.08574,592.57556,138.4233,592.4175C138.74104,592.2594,139.19798,591.9429,139.41661,591.72504C139.8738,591.26965,140.25117,591.0323,141.46254,590.43945C141.91927,590.2022,142.2967,589.94507,142.29692,589.8459C142.29707,589.76654,142.45604,589.64777,142.65456,589.5688C143.09132,589.4308,143.62764,589.0747,144.2636,588.5006C144.5418,588.26306,144.91911,588.0654,145.07784,588.06573C145.23656,588.06604,145.55424,587.9278,145.75294,587.7694C145.97151,587.6111,146.2892,587.47284,146.46773,587.4732C146.86452,587.47394,147.97655,586.9404,148.63222,586.44574C148.89046,586.24786,149.22804,586.0898,149.36693,586.09C149.64467,586.0906,151.5713,584.92377,152.4456,584.2311C154.1345,582.88525,154.61156,582.4299,154.61192,582.23145C154.61217,582.1124,154.89058,581.75586,155.20863,581.4391C155.54652,581.1223,155.80513,580.74585,155.8054,580.60693C155.80568,580.4681,155.9051,580.34924,156.00426,580.3494C156.1233,580.3497,156.2029,580.2506,156.20311,580.13153C156.20335,580.0125,156.42226,579.6558,156.70064,579.3191C156.97899,579.00226,157.1981,578.5662,157.19853,578.348C157.1989,578.1496,157.27861,577.9712,157.39763,577.97144C157.49684,577.9716,157.63634,577.63464,157.69664,577.2181C157.75694,576.8214,157.89677,576.32574,158.01616,576.14734C158.25514,575.6717,158.26662,569.7001,158.00902,569.5409C157.90996,569.4812,157.81136,569.1636,157.812,568.8263C157.81303,568.29065,157.95262,567.91394,158.45027,567.0618C158.54976,566.9033,158.66939,566.6059,158.72926,566.40765C158.80898,566.2293,158.9283,566.0708,159.02751,566.071C159.1267,566.07117,159.20647,565.853,159.20695,565.59515C159.2075,565.3174,159.30727,565.03986,159.40657,564.9805C159.52571,564.92126,159.60548,564.7032,159.60582,564.52466C159.60616,564.34607,159.72597,563.9495,159.88521,563.6721C160.40295,562.68115,160.84421,560.18225,160.64722,559.4676C160.52881,559.1302,160.39142,558.376,160.33298,557.80054C160.29437,557.245,160.15674,556.6099,160.03809,556.41125C159.93924,556.2127,159.68234,555.69635,159.50467,555.2595C159.30707,554.8227,159.10947,554.42554,159.05008,554.3659C158.89163,554.22675,158.49606,553.59106,158.12054,552.8364C157.94272,552.479,157.68552,552.1016,157.52707,551.9624C157.36856,551.843,157.25,551.62463,157.25021,551.5056C157.25049,551.3667,157.03284,551.0489,156.75558,550.7904C156.47833,550.5319,156.26068,550.23395,156.26086,550.13477C156.26138,549.8768,155.11377,548.26764,154.1438,547.1548C153.03525,545.88293,152.69943,545.14825,152.70157,544.0373C152.70331,543.1247,152.2897,541.5367,151.8746,540.76215C151.75598,540.54376,151.57846,540.00775,151.4801,539.57104C151.38174,539.1344,151.20456,538.4198,151.1062,537.9832C150.988,537.54645,150.81189,536.2963,150.71478,535.2049C150.63751,534.11365,150.46103,533.04193,150.36224,532.82355C150.26349,532.6051,150.12619,531.79144,150.06808,531.0375C149.99023,530.26355,149.91263,529.3706,149.85373,529.0531C149.79483,528.7157,149.6972,527.90216,149.61922,527.20764C149.44322,525.8583,149.12682,525.34186,146.85023,522.75836C145.62282,521.4069,145.40547,520.95013,145.80272,520.7128C145.92186,520.65356,146.00246,520.01886,146.0038,519.3245C146.00569,518.3325,145.88756,517.85614,145.51195,517.1611C145.23518,516.6645,145.01805,516.08875,145.01848,515.87054C145.01894,515.63245,144.95976,515.45386,144.88042,515.4537C144.7812,515.4535,144.54381,515.0959,144.34627,514.659C144.12886,514.22217,143.85182,513.8645,143.6931,513.8642C143.55424,513.86395,143.25719,513.58563,143.0594,513.2678C142.62434,512.5528,142.78557,511.22388,143.3419,510.80823C143.83855,510.45215,144.02084,508.5083,143.68646,507.0197C143.54886,506.3647,143.33182,505.74933,143.23279,505.6499C142.93582,505.33197,143.05911,503.11017,143.4177,502.35693C143.7164,501.76233,143.87537,501.64362,144.64926,501.54596C145.60184,501.40887,147.44781,500.91644,147.80536,500.69885C147.90468,500.6197,148.36174,500.24365,148.79897,499.84772C149.41502,499.2934,149.61403,498.97632,149.61494,498.50018C149.61559,498.1629,149.7155,497.7862,149.83476,497.66736C149.95406,497.54852,150.11385,496.9735,150.21419,496.39838C150.31453,495.8034,150.47484,494.9704,150.59471,494.53424C150.71458,494.09802,150.81517,493.36414,150.81606,492.90784C150.81694,492.45154,150.917,492.01532,151.01631,491.956C151.13548,491.89673,151.2162,491.18268,151.21776,490.3692C151.21931,489.55585,151.3199,488.84186,151.4192,488.78253C151.53838,488.7232,151.61824,488.4654,151.61873,488.20752C151.61919,487.96942,151.75874,487.59277,151.91792,487.37482C152.07701,487.17676,152.21657,486.81995,152.217,486.60168C152.21742,486.38348,152.35695,486.0266,152.51607,485.82855C152.67516,485.6106,152.81508,485.0951,152.81584,484.6983C152.81664,484.28168,152.89671,483.90485,152.97618,483.84552C153.07552,483.7862,153.21587,483.0127,153.27705,482.1399C153.35808,481.26715,153.4987,480.37463,153.61809,480.17645C153.89687,479.6413,153.88875,473.55072,153.61156,473.27234C153.47298,473.13324,153.61278,472.6375,154.15044,471.60693C154.54875,470.7943,154.98701,469.86267,155.12651,469.54553C155.4055,468.89133,155.92351,467.7615,156.70058,466.03696C156.9994,465.40274,157.27867,464.60965,157.33885,464.25266C157.41893,463.89572,157.67863,462.96378,157.938,462.19052C158.1974,461.41733,158.41722,460.60434,158.41762,460.38608C158.41805,460.16782,158.55748,459.8705,158.71648,459.7319C158.87544,459.59335,159.01479,459.35562,159.01509,459.19687C159.0154,459.03818,159.2743,458.5228,159.61247,458.06723C160.08995,457.3539,160.42769,457.1165,161.59901,456.68222C162.49243,456.3666,163.64352,456.13077,164.73492,456.03366C165.9254,455.9565,166.67964,455.77945,167.1563,455.50266C167.69252,455.2061,168.36732,455.0685,170.1332,454.97275C172.89119,454.79947,176.0269,454.2302,176.60307,453.79483C176.70247,453.69583,178.05174,453.5793,179.57951,453.50296C181.7025,453.4078,182.45662,453.29025,182.83406,453.03305C183.11214,452.855,183.72758,452.63803,184.22371,452.57944C185.23576,452.44254,186.2484,452.00803,187.06313,451.31522C187.38103,451.0778,187.73857,450.8602,187.89726,450.8605C188.27419,450.86124,190.12129,449.7935,190.5786,449.2786C190.63826,449.21915,191.13487,448.86295,191.67128,448.48703C192.22754,448.11124,192.70438,447.73514,192.7244,447.6558C192.76422,447.57657,192.96277,447.49753,193.16116,447.4979C193.61746,447.49875,194.94812,446.74753,194.94861,446.4896C194.94882,446.39035,195.14737,446.31143,195.38544,446.31186C195.88144,446.31284,196.79529,445.64017,198.26611,444.23434C198.84247,443.69968,199.81631,442.78897,200.41254,442.2545C201.00879,441.7001,201.50583,441.14554,201.5061,441.00674C201.50635,440.88766,201.5859,440.76883,201.68509,440.769C201.80414,440.7692,202.30081,440.41306,202.79764,439.9775C203.29446,439.54202,203.7713,439.18588,203.85065,439.18607C203.93,439.18625,204.9237,438.29538,206.07648,437.20645C207.22925,436.1174,208.28247,435.22678,208.42133,435.22702C208.58005,435.22733,209.35437,434.91135,210.14865,434.53598C211.5982,433.86423,212.63168,432.91397,212.63287,432.29892C212.63324,432.10056,212.85239,431.64474,213.09119,431.26816C213.34982,430.89163,213.62857,430.35666,213.7085,430.079C213.78839,429.80136,214.22592,429.24673,214.68298,428.85086C216.96835,426.81174,218.99579,424.8317,218.99612,424.6531C218.99634,424.53403,219.35449,423.99924,219.79199,423.46426C220.22946,422.94937,220.58768,422.35483,220.58807,422.1564C220.58847,421.93814,220.68811,421.72018,220.78741,421.66092C221.14496,421.4434,221.00815,420.39163,220.51364,419.61697C220.25653,419.19986,219.97998,418.58432,219.9013,418.22696C219.68497,417.2347,219.23022,416.42032,218.59628,415.96286C218.2793,415.72415,218.02206,415.36655,218.02246,415.1483C218.0246,414.03732,216.63861,412.62607,215.52759,412.62393C215.1705,412.62326,214.81381,412.40433,214.39813,411.92734C214.08142,411.54984,213.70508,411.2316,213.5662,411.23135C213.4472,411.2311,212.95172,410.95248,212.4961,410.6143C211.60455,409.9777,211.52524,409.95767,208.90689,409.73453C207.439,409.61258,207.12149,409.65164,206.54553,409.96793C206.16821,410.16562,205.79071,410.46243,205.71103,410.62106C205.1138,411.71103,204.73477,412.78165,204.61383,413.75357C204.55316,414.36844,204.41312,414.9634,204.33353,415.08224C204.21417,415.2606,203.83203,417.95804,203.91107,418.11685C203.99011,418.27567,203.31467,418.75064,203.0369,418.7501C202.60046,418.74924,201.09048,419.87717,198.96396,421.8173C198.01001,422.6884,196.95673,423.61874,196.63876,423.89597C196.3208,424.173,195.8635,424.7078,195.6247,425.08432C194.98782,426.13455,193.9151,426.8666,192.80374,427.04294C191.73207,427.21945,189.22945,428.7026,189.22856,429.1589C189.22826,429.3176,189.1487,429.4365,189.02968,429.4363C188.93047,429.43607,188.83104,429.55484,188.83073,429.7136C188.83012,430.03104,187.33913,431.61526,187.02171,431.61465C186.9225,431.61447,186.48564,431.83188,186.0883,432.10886C185.69096,432.38583,185.23427,432.60324,185.09538,432.603C184.93669,432.6027,184.5594,432.78055,184.2614,432.99814C183.86406,433.27518,183.5266,433.37363,183.1697,433.27383C182.49547,433.11374,181.3636,433.66714,181.00517,434.34103C180.74635,434.83646,180.54778,434.91544,178.56325,435.24893C176.91603,435.5234,176.30064,435.72067,175.90314,436.077C175.28705,436.6512,175.22751,436.6511,174.17697,436.15305C173.74097,435.93393,173.28497,435.75455,173.18579,435.75436C173.08661,435.75418,172.88849,435.6149,172.74991,435.4559C172.47281,435.11813,171.63965,435.05704,171.46057,435.33444C171.40088,435.43344,171.02356,435.63113,170.60669,435.74936C170.20966,435.88754,169.4945,436.36227,169.03738,436.79782C168.26224,437.53036,168.1431,437.58975,167.6872,437.37057C167.40973,437.2311,166.656,437.13058,166.02115,437.12936C164.59271,437.12662,164.33539,436.82846,164.14066,434.94333C164.08249,434.22897,163.92496,433.6335,163.82584,433.59366C163.70685,433.55374,163.62775,433.4147,163.62802,433.2759C163.6289,432.8196,162.24255,431.58682,161.19199,431.10867C159.46744,430.33157,159.01144,430.1721,157.88101,429.97147C154.86655,429.4102,152.7439,429.32675,151.35431,429.76047C150.1831,430.1154,150.04483,429.81754,150.76178,428.3904C151.08041,427.77603,151.33942,427.18137,151.33966,427.06235C151.33987,426.94327,151.99597,426.23038,152.81082,425.47806C155.25543,423.22104,155.3945,423.0825,155.97122,422.36942C156.26956,421.99295,156.50851,421.53714,156.50882,421.3784C156.50916,421.19986,156.58884,421.0215,156.68817,420.9423C156.96623,420.78418,157.88258,418.8615,158.0229,418.10785C158.10295,417.75098,158.24245,417.414,158.32195,417.3546C158.42128,417.2953,158.50139,416.89856,158.50218,416.482C158.50298,416.06543,158.60289,415.6886,158.72203,415.64917C158.92049,415.58997,159.14009,414.89612,159.48048,413.26996C159.62059,412.6353,159.85939,412.2589,160.89348,410.99115C161.01277,410.85248,161.09248,410.67407,161.09267,410.57483C161.09288,410.4558,161.2324,410.11884,161.39171,409.82166C161.55104,409.50446,161.69084,409.00873,161.69136,408.73096C161.69191,408.45325,161.87123,408.05676,162.08983,407.85876C162.30849,407.6609,162.52757,407.20502,162.60762,406.84802C162.66786,406.47125,162.80742,406.11432,162.90672,406.055C163.00603,405.9958,163.08598,405.6784,163.0866,405.36096C163.08723,405.02374,163.18733,404.56763,163.32668,404.32983C163.44615,404.09192,163.62587,403.49713,163.726,403.00134C163.80632,402.50555,164.02675,401.35535,164.20714,400.42316C164.58775,398.49945,164.84218,390.02863,164.54527,389.65106C164.44637,389.51202,164.30833,389.07532,164.22978,388.65845C164.15117,388.2616,164.01295,387.92407,163.91377,387.9239C163.7947,387.92365,163.71577,387.70526,163.71626,387.44733C163.71678,387.18945,163.57854,386.87164,163.42003,386.73254C163.26164,386.59338,163.12318,386.35504,163.12346,386.21613C163.12376,386.05737,162.80724,385.60052,162.43117,385.16336C162.05501,384.74594,161.73842,384.30893,161.7386,384.2098C161.73903,383.99155,158.47177,380.77127,158.25351,380.77084C158.15433,380.77066,157.69864,380.43246,156.64883,379.57742C156.51016,379.4581,156.29211,379.37833,156.15323,379.37808C156.01434,379.37778,155.55847,379.15866,155.182,378.90005C154.7858,378.6215,154.2308,378.34262,153.93338,378.2628C153.65576,378.20273,153.41797,378.0634,153.41815,377.96414C153.4183,377.8848,153.0813,377.7454,152.68466,377.6652C152.26819,377.58505,151.8518,377.46518,151.73294,377.3856C151.63391,377.28622,151.03894,377.166,150.44391,377.10532C147.5281,376.80215,146.53647,376.6415,146.1401,376.42258C145.48608,376.06418,141.33963,376.09586,140.84293,376.4719C140.62439,376.6301,140.14798,376.7681,139.75119,376.76736C138.83856,376.7656,136.596,377.13815,135.86143,377.41452C135.54378,377.533,134.94795,377.86905,134.57042,378.18576C134.19289,378.48257,133.65672,378.73947,133.37898,378.73898C133.04173,378.7383,132.48543,379.15384,131.59099,380.02505C130.8754,380.73798,130.21957,381.312,130.10056,381.31177C129.72363,381.31104,128.01407,383.05365,128.0133,383.45038C128.01288,383.66864,127.873505,383.94617,127.71451,384.08475C127.55551,384.22324,127.41623,384.44125,127.415924,384.6C127.41568,384.7388,126.91817,385.5314,126.321365,386.3635C125.72453,387.21548,125.227036,388.00815,125.22673,388.16678C125.226425,388.32553,125.146866,388.44437,125.02782,388.44418C124.928635,388.44394,124.828995,388.66196,124.828445,388.93973C124.82759,389.39603,124.66786,389.91147,124.02974,391.6165C123.89015,391.9932,123.68962,393.10385,123.60835,394.0956C123.527115,395.06754,123.34602,396.37656,123.20604,396.9716C123.065994,397.56638,122.96483,398.59787,122.98341,399.25266C123.00197,399.90732,123.00026,400.80014,122.999405,401.2366C122.93593,403.29977,123.14952,405.70074,123.42674,405.979C123.52571,406.0982,123.60451,406.39606,123.60402,406.65387C123.60353,406.9118,123.72157,407.40802,123.879654,407.74554C124.037674,408.10303,124.21544,408.5199,124.27464,408.67877C124.33385,408.83765,124.78844,409.73126,125.28261,410.66467C126.290665,412.61084,126.388596,413.26575,125.69353,413.62146C125.43538,413.7599,125.03786,414.136,124.79918,414.453C124.48091,414.88885,124.28233,414.98767,124.02467,414.86823C123.8463,414.76868,123.39043,414.54956,123.033646,414.37024C122.10212,413.89233,121.4473,413.95062,120.69233,414.52448C120.33466,414.80157,119.97715,415.0191,119.87797,415.01892C119.719246,415.01862,118.03626,413.26947,118.0366,413.09088C118.036934,412.9123,116.75034,411.38232,115.700905,410.32867C114.82969,409.43433,114.552284,409.2552,113.95713,409.25403C113.52064,409.25323,113.24308,409.1535,113.18397,408.95496C113.00645,408.419,112.887886,408.1609,112.531746,407.66412C112.35374,407.3861,112.01746,406.86963,111.7999,406.5121C111.58234,406.17444,111.34482,405.87646,111.28531,405.87634C111.22577,405.87622,111.20636,405.6579,111.26645,405.3802C111.30661,405.10245,111.16919,404.36826,110.95218,403.73294C110.73511,403.11752,110.51918,401.94662,110.461136,401.17282C110.42299,400.37912,110.28557,399.62497,110.166794,399.48593C109.69182,398.88974,109.61583,397.124,109.84471,391.5892C109.97002,388.33585,110.27055,386.8088,111.026505,385.73892C111.24538,385.40213,111.42445,385.12466,111.38487,385.08493C111.325485,385.0253,111.54558,384.03378,111.74492,383.55792C111.84453,383.3399,111.965195,382.5069,112.02623,381.71344C112.1071,380.91998,112.22768,380.1267,112.327225,379.92847C112.844925,378.9574,113.14421,378.08502,113.14525,377.54938C113.14589,377.2121,113.24574,376.875,113.34505,376.81567C113.46419,376.7564,113.544235,376.39948,113.54494,376.0423C113.54558,375.70496,113.625656,375.32825,113.72508,375.20947C114.08281,374.87286,114.38354,373.26642,114.486565,371.26294C114.54827,370.13214,114.70904,369.06116,114.86837,368.74408C115.02767,368.44678,115.147484,368.03033,115.14791,367.81207C115.14834,367.5938,115.24798,367.35608,115.34731,367.2967C115.585625,367.15826,115.62789,365.8092,115.389824,365.80878C115.2311,365.80847,114.55941,364.3391,114.56014,363.96216C114.560905,363.56543,115.57461,362.57538,116.80624,361.76428C117.44189,361.34888,118.03811,360.79456,118.13778,360.5368C118.23751,360.27917,118.6152,359.88312,118.99261,359.64575C119.72759,359.15118,121.080284,357.28894,121.24053,356.49567C121.30053,356.21796,121.42034,355.82147,121.51998,355.6034C121.61959,355.3853,121.839195,354.67163,122.019005,354.0172C122.198814,353.3629,122.438255,352.64917,122.55776,352.41125C122.87646,351.75714,122.508095,347.2927,122.11179,347.05386C122.0127,346.99417,121.93424,346.53763,121.93519,346.04166C121.9365,345.3671,121.79841,344.9503,121.44221,344.47348C121.16517,344.1158,120.94764,343.73837,120.94788,343.61942C120.94807,343.52017,120.631294,343.18234,120.25489,342.90384C119.42286,342.26743,118.27253,342.08664,117.5774,342.48203 Z"/> </g> </g> </g> </svg>