<svg version="1.0" xmlns="http://www.w3.org/2000/svg"
 width="512.000000pt" height="512.000000pt" viewBox="0 0 512.000000 512.000000"
 preserveAspectRatio="xMidYMid meet" role="img">
<g transform="translate(0.000000,512.000000) scale(0.100000,-0.100000)"
fill="#000000" stroke="none">
<path d="M2485 4046 c-33 -8 -82 -23 -110 -34 -290 -115 -374 -155 -484 -232
-258 -182 -447 -493 -490 -804 -6 -43 -11 -91 -11 -107 l0 -29 240 0 240 0 -2
-29 c-5 -62 -11 -61 382 -61 196 0 472 3 613 7 240 6 257 7 257 25 0 17 -11
18 -157 18 -121 0 -160 -3 -172 -14 -13 -12 -72 -15 -306 -17 -264 -2 -290 -1
-293 14 -3 13 -14 17 -44 17 l-40 0 27 45 c14 25 24 49 21 54 -9 13 65 97 123
141 81 61 150 84 258 84 113 1 129 -9 119 -76 l-6 -43 -98 0 c-86 0 -104 -3
-155 -29 -59 -28 -151 -113 -163 -148 -11 -37 3 -29 39 21 80 110 225 167 355
137 28 -7 32 -5 32 13 0 26 2 26 48 1 49 -26 75 -47 111 -94 40 -50 40 -66 0
-66 -23 0 -41 10 -66 35 -59 61 -107 80 -198 79 -64 0 -89 -5 -125 -23 -68
-36 -104 -66 -129 -111 -31 -56 -5 -54 42 3 19 23 59 56 88 72 95 52 222 36
284 -36 l20 -23 -30 19 c-67 42 -91 50 -155 50 -70 -1 -114 -18 -163 -64 -66
-60 -67 -60 149 -61 193 0 197 0 240 25 40 24 50 25 193 25 l151 0 6 28 c3 15
7 32 9 38 2 8 89 14 279 19 l275 7 -5 32 c-49 291 -142 484 -317 657 -132 132
-290 228 -483 294 -43 15 -81 29 -83 31 -2 1 6 14 16 28 l20 25 94 -33 c167
-59 232 -97 619 -366 69 -49 -120 134 -203 196 -153 114 -336 206 -487 246
-99 26 -293 33 -375 14z m286 -134 c109 -29 178 -67 336 -185 314 -235 443
-414 488 -682 9 -56 -9 -33 -24 30 -18 74 -101 241 -156 313 -92 122 -267 283
-410 379 -208 139 -510 172 -795 87 -164 -50 -361 -171 -466 -287 -109 -121
-193 -267 -245 -426 -16 -47 -28 -75 -29 -62 0 35 56 196 95 270 48 92 151
226 229 299 155 144 343 239 556 278 106 19 322 12 421 -14z m-221 -101 c0
-11 7 -26 15 -35 22 -21 19 -24 -20 -24 -32 0 -35 2 -30 22 4 11 9 29 11 39 7
23 24 22 24 -2z m190 -12 c0 -5 -8 -9 -17 -9 -15 0 -16 -2 -3 -10 13 -9 13
-11 0 -20 -13 -9 -13 -11 0 -20 12 -8 9 -10 -14 -10 -27 0 -28 1 -21 37 4 21
9 41 11 44 6 10 44 -1 44 -12z m-340 1 c-9 -6 -11 -10 -3 -10 7 0 10 -7 7 -15
-4 -8 -1 -15 5 -15 6 0 11 -4 11 -10 0 -5 -9 -10 -20 -10 -11 0 -20 1 -20 3 0
1 -4 17 -9 35 -9 30 -8 32 17 32 21 0 24 -2 12 -10z m-110 -50 l21 -30 -25 0
c-14 0 -26 -4 -26 -10 0 -5 -4 -10 -10 -10 -5 0 -10 18 -10 40 0 49 19 53 50
10z m718 -53 c10 -11 8 -19 -6 -37 -16 -20 -21 -21 -43 -10 -13 7 -25 14 -27
15 -2 2 4 17 13 34 13 26 19 30 34 22 10 -6 23 -16 29 -24z m-920 -21 c21 -23
16 -46 -8 -31 -5 3 -10 -1 -10 -10 0 -30 -18 -6 -22 30 -5 41 8 45 40 11z
m652 -17 c171 -39 399 -178 514 -312 93 -109 145 -223 161 -350 5 -39 4 -57
-4 -57 -6 0 -11 16 -11 34 0 52 -45 183 -85 251 -48 80 -112 144 -218 216
-109 75 -246 141 -357 171 -118 32 -354 31 -475 -1 -154 -41 -360 -170 -428
-268 -51 -74 -148 -337 -162 -440 -10 -77 -29 -68 -22 10 19 190 121 408 238
507 144 122 231 175 368 220 148 50 317 56 481 19z m-766 -51 c8 -14 6 -22
-12 -40 l-22 -22 -28 27 c-27 28 -27 28 -7 43 25 18 54 15 69 -8z m711 -17
c179 -37 334 -121 458 -249 37 -39 67 -74 67 -79 0 -4 -31 -28 -70 -52 -38
-24 -70 -46 -70 -48 0 -1 16 -25 35 -52 33 -46 65 -109 80 -158 5 -18 2 -23
-12 -23 -13 0 -28 20 -50 68 -69 147 -171 250 -317 317 -184 86 -411 64 -590
-56 -158 -105 -252 -250 -300 -461 -10 -45 -26 -32 -26 20 1 186 199 431 426
525 83 34 104 39 229 47 l110 7 -116 1 c-171 3 -267 -29 -406 -135 -118 -89
-213 -222 -254 -353 -12 -42 -22 -56 -38 -58 -17 -3 -21 2 -21 21 0 70 75 234
136 298 26 28 30 49 12 67 -20 20 -36 14 -47 -20 -7 -18 -29 -62 -51 -98 -41
-69 -90 -201 -90 -244 0 -14 -4 -26 -10 -26 -28 0 7 134 65 249 24 48 48 105
54 126 8 29 33 63 88 119 117 119 157 128 222 49 37 -44 43 -25 11 37 -11 22
-20 45 -20 53 0 13 195 108 245 120 47 11 166 5 250 -12z m-759 -231 c-47 -50
-85 -119 -86 -152 0 -10 -20 -57 -44 -105 -42 -84 -76 -187 -76 -232 0 -12 -4
-21 -10 -21 -28 0 13 154 90 337 46 108 59 129 107 173 70 64 79 64 19 0z
m743 -105 c95 -23 177 -71 256 -150 68 -69 130 -164 123 -187 -2 -6 -19 15
-37 47 -68 120 -196 227 -315 264 -200 61 -382 17 -526 -126 -37 -38 -82 -95
-100 -127 -19 -33 -36 -54 -38 -47 -7 21 61 122 124 187 66 67 174 128 254
143 72 14 190 12 259 -4z m12 -55 c117 -36 238 -137 298 -249 35 -67 39 -91
14 -91 -12 0 -29 20 -47 55 -71 137 -248 235 -423 235 -42 0 -43 0 -43 35 l0
35 69 0 c40 0 95 -8 132 -20z m564 11 c3 -6 -22 -29 -56 -52 -53 -36 -63 -39
-75 -27 -13 13 -7 19 43 51 60 38 78 43 88 28z m20 -51 c6 -10 -82 -79 -102
-80 -31 0 -19 22 29 55 57 38 64 40 73 25z m24 -53 c-26 -22 -100 -67 -109
-67 -22 0 -3 24 45 57 33 23 52 30 58 24 6 -6 9 -12 6 -14z m-1822 -79 c-3 -8
-6 -5 -6 6 -1 11 2 17 5 13 3 -3 4 -12 1 -19z m1833 -53 c0 -5 -9 1 -20 15
-11 14 -20 30 -20 35 0 6 9 -1 20 -15 11 -14 20 -29 20 -35z m-1255 -116 c-8
-23 -15 -50 -15 -60 0 -11 -4 -19 -10 -19 -5 0 -10 10 -10 21 0 37 23 99 36
99 11 0 10 -8 -1 -41z m566 10 c21 -7 49 -23 61 -37 13 -14 19 -23 13 -20 -5
2 -32 14 -59 27 -61 29 -119 25 -177 -14 -49 -32 -66 -24 -24 10 52 43 117 54
186 34z m19 -63 l25 -18 -25 7 c-50 15 -140 17 -158 4 -12 -10 -11 -7 3 10 17
20 27 23 75 19 33 -2 66 -12 80 -22z"/>
<path d="M2965 3690 c-8 -13 4 -32 16 -25 12 8 12 35 0 35 -6 0 -13 -4 -16
-10z"/>
<path d="M1930 3595 c0 -9 5 -15 11 -13 6 2 11 8 11 13 0 5 -5 11 -11 13 -6 2
-11 -4 -11 -13z"/>
<path d="M2508 3510 l-28 -50 60 0 c33 0 60 2 60 4 0 9 -53 96 -58 96 -4 0
-19 -23 -34 -50z"/>
<path d="M2700 3530 c0 -6 -12 -15 -26 -20 -20 -8 -25 -16 -22 -38 2 -21 8
-27 28 -27 23 0 25 4 26 48 0 26 -1 47 -3 47 -1 0 -3 -5 -3 -10z"/>
<path d="M2301 3471 c-13 -24 8 -55 34 -50 28 6 42 34 26 53 -18 22 -48 20
-60 -3z"/>
<path d="M2968 3396 l-28 -35 31 -26 c30 -24 33 -25 50 -9 25 22 24 28 -7 44
-19 11 -24 19 -19 37 7 30 5 29 -27 -11z"/>
<path d="M2037 3342 c-22 -24 -21 -35 2 -56 37 -34 94 10 71 54 -13 25 -52 26
-73 2z"/>
<path d="M1150 2905 l0 -45 45 0 c43 0 45 1 45 29 0 16 3 36 6 45 5 13 -2 16
-45 16 l-51 0 0 -45z"/>
<path d="M3870 2900 c-35 -5 -38 -7 -15 -9 17 0 46 -4 66 -7 l36 -6 7 -210 7
-211 -26 -27 -26 -27 48 -6 c26 -3 49 -4 51 -3 1 2 -1 118 -5 259 l-6 257 -46
-2 c-25 0 -66 -4 -91 -8z"/>
<path d="M1010 2515 l0 -315 173 -1 c230 -2 224 0 251 -75 12 -33 36 -80 53
-105 17 -24 56 -84 88 -133 184 -283 461 -452 807 -496 155 -19 322 -8 468 31
98 26 258 105 341 168 198 151 372 411 416 624 l18 87 33 0 c18 0 35 -6 37
-13 7 -16 -29 -154 -55 -215 -12 -29 -14 -40 -5 -28 22 28 55 122 68 189 8 45
14 57 29 57 22 0 22 -11 2 -131 -29 -169 -106 -357 -213 -519 -59 -90 -56 -89
38 8 130 132 205 269 261 474 17 64 41 218 35 226 -1 1 -128 8 -281 14 -266
11 -281 12 -314 35 -32 21 -60 30 -60 18 0 -2 12 -16 26 -30 17 -17 24 -32 19
-43 -4 -9 -11 -42 -16 -73 -21 -131 -77 -236 -173 -327 -175 -166 -425 -240
-666 -198 -52 9 -104 23 -116 31 -12 7 -28 33 -36 57 l-14 44 45 -22 c186 -89
464 -64 647 58 143 95 221 212 253 376 8 41 8 42 -18 42 -22 0 -28 -7 -39 -42
-20 -64 -96 -171 -165 -233 -72 -64 -175 -118 -267 -141 -94 -24 -283 -15
-365 16 -129 49 -258 159 -319 271 -40 72 -27 82 16 13 79 -128 229 -240 368
-275 75 -19 231 -16 305 6 150 43 305 164 371 290 57 107 57 105 -29 105 -57
0 -78 4 -88 17 -13 14 -42 15 -314 9 -165 -4 -367 -11 -449 -17 -110 -8 -161
-7 -197 1 -67 16 -79 10 -79 -43 l0 -43 -202 -3 c-112 -1 -205 -4 -207 -6 -6
-7 48 -154 81 -220 53 -105 120 -197 218 -299 52 -55 77 -86 55 -69 -59 46
-155 149 -207 223 -74 105 -156 283 -161 350 -1 20 -5 21 -42 15 -22 -4 -115
-9 -206 -11 l-166 -5 -6 53 c-4 29 -7 160 -7 290 l0 237 58 4 c51 3 49 3 -20
5 l-78 2 0 -315z m1411 -273 c24 -12 63 -24 87 -28 40 -6 42 -8 42 -43 0 -20
3 -52 6 -72 8 -45 -1 -49 -86 -38 -85 12 -177 56 -241 116 -48 44 -109 126
-109 145 0 4 36 8 79 8 46 0 83 5 86 11 4 6 24 -7 49 -33 23 -25 62 -54 87
-66z m-17 59 c94 -75 223 -68 330 18 45 36 50 38 37 13 -13 -24 -81 -71 -128
-88 -79 -28 -177 -12 -256 43 -42 29 -74 73 -40 55 10 -6 35 -24 57 -41z m52
24 c63 -33 126 -33 189 0 60 32 70 25 16 -11 -74 -48 -195 -40 -246 16 -24 26
-16 25 41 -5z m179 15 c-11 -5 -47 -9 -80 -9 -33 0 -69 4 -80 9 -13 6 15 9 80
9 65 0 93 -3 80 -9z m-527 -84 c110 -167 264 -243 472 -234 99 5 102 5 55 -7
-157 -40 -332 13 -464 140 -62 60 -134 165 -114 165 5 0 28 -29 51 -64z m722
-21 c-24 -25 -46 -45 -49 -45 -3 0 15 20 39 45 24 25 46 45 49 45 3 0 -15 -20
-39 -45z m90 40 c0 -8 -92 -105 -99 -105 -6 0 90 108 97 109 1 1 2 -1 2 -4z
m635 -54 c-7 -49 -35 -145 -41 -139 -2 2 3 28 11 58 8 30 15 74 15 98 0 29 4
41 11 36 7 -4 9 -23 4 -53z m-1570 -139 c15 -20 55 -63 88 -96 46 -44 51 -50
20 -27 -79 60 -180 194 -198 261 -3 14 10 -3 29 -38 19 -35 46 -80 61 -100z
m-58 -52 c54 -79 123 -149 189 -191 35 -23 66 -49 69 -59 6 -20 95 -62 176
-84 30 -8 45 -15 34 -15 -55 -2 -245 78 -245 103 0 8 -19 29 -42 45 -99 70
-187 170 -238 271 -38 75 -39 92 -2 25 15 -27 42 -70 59 -95z m1363 80 c0 -5
-13 -24 -28 -42 -15 -18 -48 -60 -72 -92 -144 -191 -417 -321 -659 -314 -57 1
-59 2 -16 5 228 14 391 74 547 199 72 58 116 108 172 197 34 52 56 71 56 47z
m-1477 -82 c-22 -24 -51 -32 -68 -18 -20 17 -19 34 1 26 9 -3 27 3 42 14 19
16 27 18 33 8 5 -7 1 -20 -8 -30z m1555 26 c27 -19 28 -37 1 -80 -25 -41 -60
-52 -94 -30 -41 27 -29 82 23 110 35 19 43 19 70 0z m-1474 -79 c48 -73 -17
-130 -77 -67 -34 35 -34 45 -1 71 35 28 58 26 78 -4z m1331 -44 c-4 -13 3 -26
25 -44 16 -14 30 -30 30 -36 0 -18 -26 -13 -45 9 -10 11 -22 17 -27 14 -5 -3
-16 0 -24 7 -13 10 -11 16 12 41 33 33 37 35 29 9z m-1015 -47 c0 -2 -9 0 -20
6 -11 6 -20 13 -20 16 0 2 9 0 20 -6 11 -6 20 -13 20 -16z m-204 -49 c33 -33
29 -74 -8 -95 -25 -13 -30 -13 -55 2 -16 9 -34 27 -42 40 -12 21 -12 27 4 51
23 36 67 36 101 2z m1188 -44 c3 -5 -3 -16 -12 -25 -17 -15 -20 -14 -47 14
-23 24 -26 32 -15 45 11 13 15 12 41 -6 16 -11 31 -24 33 -28z m-110 -54 c43
-37 43 -63 -1 -52 -21 5 -24 3 -19 -10 10 -27 -22 -29 -44 -4 -24 29 -25 62
-4 83 21 21 23 21 68 -17z m-953 -17 c5 0 9 -4 9 -10 0 -5 -6 -10 -14 -10 -8
0 -24 -14 -36 -31 -25 -34 -35 -33 -21 2 5 13 12 32 15 43 4 11 12 16 22 12 9
-3 20 -6 25 -6z m854 -31 c19 -17 35 -38 35 -47 0 -13 -3 -12 -21 3 -20 19
-20 19 -10 -8 14 -37 -1 -34 -33 7 -26 34 -32 57 -19 69 9 10 9 10 48 -24z
m-71 -58 c19 -50 15 -62 -13 -37 -19 17 -19 17 -14 -5 5 -18 3 -21 -11 -16
-10 4 -15 3 -11 -3 3 -6 0 -10 -8 -10 -15 0 -50 77 -41 92 3 5 17 2 30 -7 23
-15 24 -14 24 8 0 26 10 41 20 30 4 -5 15 -28 24 -52z m-626 26 c11 -9 10 -12
-6 -18 -11 -4 -23 -21 -27 -38 -7 -34 -7 -34 -28 -25 -14 5 -14 10 -1 40 13
30 13 35 -1 40 -8 3 -12 10 -9 16 7 11 52 2 72 -15z m159 17 c-3 -3 -12 -4
-19 -1 -8 3 -5 6 6 6 11 1 17 -2 13 -5z m323 -43 c0 -5 -9 -11 -21 -14 -15 -4
-20 -12 -17 -29 2 -19 8 -23 36 -20 34 2 40 -6 20 -26 -19 -19 -66 -15 -78 7
-14 26 -13 64 2 79 14 14 58 16 58 3z m-361 -23 c18 -50 21 -88 7 -88 -8 0
-16 7 -20 15 -7 18 -52 20 -59 3 -3 -9 -8 -10 -15 -3 -15 14 37 95 61 95 10 0
21 -10 26 -22z m141 -3 c0 -8 -6 -15 -14 -15 -16 0 -26 -21 -26 -57 0 -15 -5
-23 -12 -21 -8 3 -11 20 -9 46 1 25 -2 42 -8 42 -6 0 -11 5 -11 10 0 6 18 10
40 10 29 0 40 -4 40 -15z m91 -38 l19 -49 -31 7 c-22 5 -34 3 -40 -6 -6 -10
-11 -11 -19 -3 -15 15 18 106 37 102 9 -2 24 -25 34 -51z"/>
<path d="M3327 2033 c-9 -9 12 -33 29 -33 19 0 18 26 -2 34 -19 7 -19 7 -27
-1z"/>
<path d="M3277 2003 c-12 -11 -8 -22 13 -33 30 -16 45 -2 24 21 -18 20 -27 23
-37 12z"/>
<path d="M1840 1955 c-11 -13 -11 -19 3 -33 20 -19 41 -5 35 24 -4 24 -22 28
-38 9z"/>
<path d="M1937 1823 c-12 -11 -8 -40 7 -52 10 -9 15 -8 20 4 3 8 12 15 21 15
18 0 19 12 3 28 -13 13 -41 16 -51 5z"/>
<path d="M2370 1580 c0 -5 5 -10 10 -10 6 0 10 5 10 10 0 6 -4 10 -10 10 -5 0
-10 -4 -10 -10z"/>
<path d="M2600 1565 c0 -8 4 -15 10 -15 5 0 7 7 4 15 -4 8 -8 15 -10 15 -2 0
-4 -7 -4 -15z"/>
<path d="M3584 2756 c-52 -23 -64 -50 -64 -143 0 -76 2 -85 28 -114 53 -59
177 -48 203 19 7 16 9 59 5 106 -6 87 -19 109 -73 132 -40 17 -59 17 -99 0z
m85 -60 c18 -21 26 -142 11 -161 -15 -18 -64 -20 -77 -2 -15 19 -24 136 -13
158 13 23 62 26 79 5z"/>
<path d="M3399 2753 c-14 -3 -16 -19 -12 -116 5 -115 15 -162 38 -171 31 -11
35 18 23 157 -7 84 -16 137 -22 136 -6 -1 -18 -3 -27 -6z"/>
<path d="M3817 2717 c-32 -49 -32 -53 -8 -92 18 -29 18 -31 -1 -63 -27 -45
-18 -64 29 -60 31 2 39 7 41 25 2 13 -3 32 -11 43 -13 19 -12 25 6 59 21 38
21 39 2 80 -10 23 -21 44 -25 46 -3 2 -18 -15 -33 -38z"/>
<path d="M3102 2743 c-14 -3 -22 -10 -19 -17 3 -7 8 -75 12 -150 4 -75 12
-139 17 -142 5 -3 21 -3 35 1 l26 6 -7 97 -7 97 35 -34 c20 -19 37 -33 40 -30
2 2 12 20 22 39 l19 35 6 -93 c3 -50 9 -95 12 -99 4 -3 16 2 27 12 17 15 20
31 20 99 0 45 -3 105 -6 134 -7 51 -7 52 -40 52 -29 0 -36 -5 -54 -40 -11 -22
-23 -40 -25 -40 -3 0 -17 18 -31 40 -26 39 -34 42 -82 33z"/>
<path d="M2622 2723 c-69 -4 -73 -5 -70 -26 2 -16 11 -23 34 -25 28 -3 32 -8
38 -40 3 -20 6 -66 6 -102 0 -100 5 -110 53 -110 l40 0 -6 135 c-6 124 -3 147
17 128 7 -8 99 -44 101 -40 0 1 6 21 12 45 l10 42 -81 -2 c-45 -1 -114 -4
-154 -5z"/>
<path d="M2876 2708 c-3 -13 -8 -48 -11 -78 -4 -30 -15 -86 -26 -125 -10 -38
-19 -71 -19 -72 0 -2 13 -3 30 -3 23 0 31 5 36 25 5 20 12 25 40 25 28 0 35
-5 40 -25 5 -21 12 -25 44 -25 l37 0 -54 128 c-29 70 -58 137 -63 150 -5 12
-18 22 -30 22 -12 0 -21 -8 -24 -22z m43 -131 l20 -47 -24 0 c-23 0 -25 3 -25
52 0 59 2 59 29 -5z"/>
<path d="M2416 2682 c-3 -22 -21 -92 -39 -156 l-34 -116 33 0 c28 0 34 5 44
35 11 33 14 35 55 35 38 0 44 -3 55 -30 10 -25 18 -30 46 -30 l34 0 -14 33
c-8 17 -37 84 -65 147 -46 106 -53 115 -79 118 -27 3 -30 0 -36 -36z m57 -107
l16 -45 -29 0 c-27 0 -28 1 -19 38 5 20 9 40 9 45 0 18 9 4 23 -38z"/>
<path d="M1949 2706 c-2 -2 -2 -65 1 -140 5 -124 7 -137 28 -158 33 -33 110
-32 146 1 25 24 26 29 26 140 0 152 -3 161 -47 161 l-35 0 4 -132 c3 -124 2
-133 -16 -136 -30 -6 -46 26 -46 88 0 32 -3 85 -6 119 -6 54 -9 61 -29 61 -12
0 -24 -2 -26 -4z"/>
<path d="M1812 2651 c-21 -36 -22 -48 -16 -135 l7 -95 -37 -21 c-41 -25 -47
-55 -13 -71 30 -13 71 2 92 35 14 21 16 48 13 165 -3 139 -3 139 17 123 13
-11 11 -7 -4 11 -14 15 -27 27 -31 27 -3 0 -16 -18 -28 -39z"/>
<path d="M1190 2558 c0 -62 3 -130 6 -150 l7 -38 72 0 c69 0 75 2 99 31 23 27
26 39 26 109 0 44 -5 90 -11 104 -17 36 -67 56 -138 56 l-61 0 0 -112z m138
-32 c3 -82 -3 -96 -40 -96 -16 0 -18 11 -18 91 l0 90 28 -3 c27 -3 27 -4 30
-82z"/>
<path d="M1474 2609 c3 -34 6 -102 6 -150 l0 -89 36 0 37 0 -7 38 c-3 20 -6
88 -6 150 l0 112 -36 0 -37 0 7 -61z"/>
<path d="M2215 2426 c-20 -30 -13 -46 21 -46 28 0 42 25 27 48 -16 26 -31 25
-48 -2z"/>
<path d="M1305 2112 c14 -111 96 -292 189 -415 114 -152 329 -333 495 -417 84
-42 220 -87 317 -105 47 -9 88 -15 90 -12 3 2 -24 10 -58 17 -449 92 -873 460
-1003 870 -35 110 -36 113 -30 62z"/>
<path d="M3405 1634 c-74 -62 -263 -180 -348 -216 -192 -84 -419 -120 -621
-99 -127 13 -353 67 -437 105 -30 14 -78 39 -106 56 -74 43 -66 30 15 -23 143
-95 333 -174 472 -197 41 -6 93 -15 115 -19 l40 -7 3 -129 c3 -149 8 -174 28
-130 8 19 13 72 14 146 l0 116 88 7 c343 28 602 161 785 404 17 22 -16 13 -48
-14z"/>
</g>
</svg>