<svg xmlns="http://www.w3.org/2000/svg" viewBox="191.904047976012 145.92 823.2683658170914 616.32" style="max-height: 500px" width="823.2683658170914" height="616.32">
 <g fill="#7f7f7f">
  <path d="m713.64 270.1c-27.016-43.277-133.46-50.395-169.6 14.902-26.204 51.082-4.6702 128.87 35.829 165.91 49.242 50.193 104.76 52.191 144.83 114.24 13.053 19.683 25.856 42.812 32.585 50.646 36.584-94.715 77.904-136.47 129.08-260.94 70.762-177.7-115.56-304.24-189.01-136.16-5.4905-2.8218-8.9552-5.6605-16.994-6.9255 17.91-49.824 53.137-82.459 91.271-92.501 170.98-20.015 204.13 154.22 110.41 308.83-33.786 57.333-86.729 135.73-105.29 200.25-8.15 0-19.492 0-33.786-0.13507-11.734-21.271-19.721-45.429-37.068-62.396-48.575-55.154-122.45-75.045-165.07-137.53-30.987-48.53-41.187-118.8-0.93146-172.09 35.792-45.038 135.58-57.803 184.5-13.095-5.2272 9.1306-8.5417 21.681-10.759 26.996z" transform="rotate(32.477 727.89 373.02)"/>
  <path d="m576.26 357.79c-51.894-104.71-153.26-1.1634-159.6 81.721-16.438 12.847-19.232 15.74-38.314 27.343-13.421-27.1-68.54-58.182-96.597-43.386-32.477 16.71-35.053 60.943-27.505 97.133 11.933 65.114 64.798 108.8 115.64 134.4 34.449 21.06 87.506 45.204 121.42 67.399 10.108-40.389 103.64-224.25 100.94-212.4-2.7045 11.858-32.239 87.819-24.843 103.88-22.876 23.904-48.753 99.035-56.029 132.16-12.252 3.3419-11.816 1.3671-19.063 9.8347-29.505-24.638-95.626-60.19-128.8-77.807-51.361-28.793-96.415-47.759-129.6-103.9-25.416-41.378-33.546-102.88-4.6643-144.71 24.114-32.768 65.523-29.91 98.679-22.45 16.493 1.6446 46.541 18.67 60.524 22.394 3.5242-20.757 4.8821-32.589 20.278-72.903 14.658-31.487 31.84-50.978 66.89-64.162 53.927-11.465 110.56-2.3758 149.82 99.95 39.256 102.33-41.388-46.835-49.174-34.497z" transform="rotate(-7.1741 423.54 522.19)"/>
 </g>
</svg>