<?xml version="1.0" encoding="UTF-8"?>
<svg viewBox="0 0 744.09447 1052.362179" xmlns="http://www.w3.org/2000/svg">
 <g transform="matrix(.67083 .029733 -.029733 .67083 -.16387 22.681)">
  <path d="m278.61 398.5c44.087 93.764 58.112 203.1 89.542 301.09-2.6282 21.668 17.367 37.605 36.681 25.697 21.712-12.679 6.4168-40.696 5.8655-60.105-8.0823-63.408-18.087-126.93-37.783-187.88-4.6666-20.712-17.606-40.695-13.298-62.606 17.736-13.556 38.912 4.5062 58.613 0.89559 20.244 1.0998 40.495 2.3155 60.648 4.5789 15.692 19.564-9.7986 38.871-13.438 58.164-8.4882 18.388-18.393 36.218-24.652 55.552 6.8828 12.254 28.244 45.439 39.367 21.068 17.521-43.354 36.777-86.081 51.068-130.66 6.2067-15.766 23.314-42.326-0.25835-51.568-22.404-3.3558-42.499-13.699-65.014-16.565-29.12-5.1019-58.92-2.8245-87.872 1.2961-21.467-3.27-42.057 3.5007-60.882 13.203-14.234 3.3046-34.986 19.99-45.835 13.255 0.22921-21.499 31.813-14.956 44.085-26.77 18.427-9.1948 38.901-17.102 59.742-13.031 30.836-1.8314 62.085-8.4897 92.693-0.83664 24.375 4.5578 49.087 9.9681 71.735 20.172 19.115 6.3497 17.649 28.287 11.152 43.303-16.291 43.137-30.048 87.275-49.03 129.35-8.2861 15.339-9.0424 48.097-32.745 44.588-16.99-10.709-38.948-27.135-40.566-48.637 2.8649-20.918 17.9-37.339 24.319-57.147 6.2653-14.973 12.247-30.188 20.883-44-25.936 2.8742-51.643-4.4076-77.579-3.6461-9.1098-3.1827-33.363-8.3892-21.924 8.9699 17.13 59.023 35.402 118.17 41.951 179.53 5.4432 34.305 11.165 68.609 14.227 103.23-8.5348 21.902-38.826 23.563-58.521 21.739-18.344-13.514-14.031-40.044-22.539-59.167-21.812-79.247-37.142-160.6-66.823-237.47-6.6205-16.909-13.093-32.388-17.292-50.035-2.6524-19.079 10.032-8.9918 13.48 4.4447z"/>
  <path d="m441.15 544.51c-1.382 9.1412-10.635 15.694-9.5928 25.417 0.9995 6.0081 5.7804 10.308 8.9889 15.199 7.6863 10.145 15.663 20.569 26.643 27.355-2.8465-12.128-5.3527-24.347-7.4331-36.63-2.263-5.2295 13.218 1.794 14.27 5.278 2.11 9.7888 3.4921 19.724 5.6862 29.493 1.0129 6.5146 0.59526 14.576-5.1953 18.821-5.0086 2.8848-11.001-0.13391-14.714-3.7826-14.969-12.738-27.585-28.063-38.391-44.427-4.8607-8.4342-4.5192-19.304 0.48506-27.595 2.9302-5.1663 5.3116-10.598 7.4777-16.112 1.919-3.0168 9.7632 5.7919 11.775 6.982z"/>
  <path d="m389.1 738.34c-0.1309 5.2716 0.22307 10.577 1.3707 15.733 3.1908 4.4682 9.2468 4.1039 14.124 4.2396 14.308 0.57375 28.637 0.35549 42.941 1.0418 1.9582-4.8411-3.7054-7.6581-6.4885-10.553-6.7192-6.4345-13.84-12.489-21.596-17.644-0.32975-3.7662 0.62165-8.4675 4.1587-10.471 3.9867-0.39545 7.5345 2.7337 10.919 4.5927 9.5898 6.6178 17.429 15.361 25.418 23.748 3.6039 4.3607 7.1566 10.374 4.8432 16.136-3.1344 6.3122-10.974 8.2001-17.469 7.4589-16.819-0.4096-33.656-0.44591-50.456-1.338-7.4716-0.60742-15.69-3.98-18.622-11.425-2.4162-5.6762-2.0538-11.963-2.6737-17.977 2.5055-2.7469 12.384-3.4845 13.531-3.5402z"/>
  <path d="m353.91 355.06c-5.4353-38.696-7.8722-77.808-7.3619-116.88-8.3665-21.091 13.433-40.247 33.901-34.092 59.101-0.86047 118.18 0.28688 177.29 0.23805 5.7888-15.22 1.015-27.622-16.978-21.976-38.018-2.598-76.234-2.609-114.02 2.7339-27.447 3.1476-54.694-2.0341-81.09-9.1131-20.226-7.3762-35.596 8.8415-53.563 14.389-22.046 7.9108-44.772 16.57-68.329 17.492-19.193-3.121-20.805 28.163-34.066 39.083-22.526 31.955-35.828 69.092-57.319 101.69-10.574 18.449-31.804 40.649-5.8926 56.847 20.318 18.086 39.171 37.472 56.558 58.346 13.664 20.378 40.984-6.9244 18.74-19.395-17.602-14.493-33.584-30.959-48.517-48.16-17.554-24.865 15.184-48.555 25.16-69.965 15.216-19.696 20.391-49.232 43.023-61.914 26.338-5.199 29.518 29.621 36.149 47.338 7.6956 26.03 17.617 51.685 20.544 78.853-4.5657 13.066-14.751 2.6571-5.4805-5.509-17.971 3.0785-9.0819-29.399-18.402-40.555-6.5994-22.588-13.417-45.181-22.603-66.878-26.405 7.1413-27.782 41.681-44.526 59.848-10.73 17.142-38.813 42.979-14.653 60.424 16.19 18.38 35.875 33.623 51.403 52.454 8.0081 20.881-24.253 47.271-41.698 29.656-20.992-17.986-36.562-41.506-58.115-59.032-19.288-13.309-35.689-39.165-15.118-59.091 30.986-45.226 49.588-97.866 82.729-141.75 6.1914-18.54 20.504-32.756 40.918-26.523 30.171-5.2146 59.505-15.915 86.353-30.557 17.386-7.4268 35.484 3.3313 53.065 5.2132 25.162 6.716 51.116 4.241 76.576 1.1642 28.135-3.0083 56.505-2.9733 84.629-0.41401 23.637-6.2053 53.319 8.4432 37.605 35.881-11.301 25.14-42.525 7.65-63.429 12.467-38.491-0.08464-77.006-0.48212-115.43 0.0757-16.437-1.9389-38.862-1.2806-32.279 21.368 0.15536 38.843 1.8122 77.812 7.869 116.24h-13.65z"/>
  <path d="m691.84 389.68c-1.0137 12.686 2.8174 26.074 12.632 34.62 10.024 11.205 24.951 19.904 40.442 16.99 12.333-0.48231 23.916-9.1146 36.435-5.4177 10.614 7.1928 22.161 14.907 35.657 13.63 24.147-1.4109 41.714-8.7096 63.876-16.485 12.814-10.372 18.489-25.56 18.385-37.717-0.61354-11.591 8.2583-26.015-1.3484-35.557-11.057-3.6947-22.653-6.3772-33.948-9.6286-17.265-4.4321-34.413-9.6092-51.785-13.443-11.833 0.37087-20.578 9.7298-31.1 14.019-24.206 12.802-49.675 23.093-73.537 36.564-8.3992 3.6351-24.076 16.231-25.663-0.52342 5.3308-8.3219 18.882-8.2367 26.647-14.806 19.761-10.361 40.098-19.562 60.174-29.247 12.806-6.6749 24.851-15.62 38.836-19.517 15.932-0.31095 30.398 7.6222 45.744 10.727 18.193 5.1974 37.182 8.2777 54.472 16.185 11.305 7.0791 8.2261 21.733 6.1772 32.659-1.8449 13.273-1.6053 27.051-5.7624 39.869-5.8771 11.35-16.073 20.612-26.127 26.468-22.01 9.7741-48.174 16.316-73.348 13.398-10.824-0.79174-20.839-5.6872-29.146-12.39-11.31-3.883-22.047 4.6537-33.454 4.5547-15.465 2.0025-31.681-2.7542-42.949-13.701-12.784-10.045-23.539-24.137-24.598-40.911-6.2258-9.6141 13.792-26.051 13.288-10.339z"/>
  <path d="m682.41 410.43c-12.342 8.638-27.104 12.974-39.747 20.988-7.9908 7.9981-5.0701 20.154-3.8672 30.107 3.1282 32.431 3.5554 65.06 7.0699 97.457 1.3797 6.5871-0.75054 14.457 3.306 20.111 8.2238 7.9823 20.339-1.5118 16.028-11.465 0.88951-23.807 4.6264-47.423 5.146-71.262 0.68099-10.241-0.06882-20.661 1.2354-30.798 3.4914-9.4592 14.981-9.9951 23.498-10.572 9.4702-1.9803 18.363-6.0297 26.784-10.703 10.815-1.4268 10.691 15.229 0.03678 14.263-10.223 5.4068-21.171 11.021-33.072 10.474-7.7946 4.0241-4.6296 13.658-4.2921 20.586-1.2678 15.333-2.0382 30.841-3.6042 46.214-1.2644 14.203-2.4707 28.429-2.6569 42.696 3.3809 7.714-2.2631 20.244-11.81 18.194-9.4678-2.8094-21.415-0.49651-28.607-8.8507-7.6375-13.481-3.8219-29.565-7.0607-44.127-2.341-25.179-1.8855-50.547-4.9451-75.673-0.68836-10.489-2.5685-21.127-1.2411-31.595 3.2284-13.128 15.559-21.688 27.964-25.17 8.7124-4.009 16.862-10.043 26.678-10.972l3.1577 10.097z"/>
  <path d="m636.18 601.11c-7.4065 10.569-12.13 22.685-18.787 33.696-4.6914 2.7528-0.59458 11.108 4.4329 9.3988 8.5511-1.6575 12.84-10.042 18.863-15.403 9.8015-9.9708 19.479-20.76 24.335-34.106 2.9503-5.1115 12.346-4.1511 13.314 2.0178 1.4095 6.234-3.3438 11.42-6.5978 16.173-10.827 14.789-23.828 27.821-36.835 40.661-5.3237 4.2947-12.633 4.7717-19.072 3.248-5.994-1.229-12.346-3.808-15.896-9.0075-1.9351-5.5174 1.7979-10.742 3.9787-15.566 6.4627-12.445 13.335-24.676 19.805-37.114 2.6218-4.4506 5.2086-9.3104 9.5018-12.338 4.5467-1.761 10.342 3.7863 7.577 8.2622-1.1845 3.5119-2.9602 6.7778-4.6211 10.078z"/>
  <path d="m825.07 461.25c-3.0452 14.588-3.1546 29.609-5.4258 44.331-4.4687 46.843-6.4618 93.882-10.89 140.73-1.4837 19.156-2.8574 38.405-1.6145 57.617 6.754 3.1909 22.007 11.051 20.834-2.0799 8.9176-23.807 9.0782-44.48 13.442-74.324s8.5286-79.279 11.298-104.81 4.2015-32.697 6.1318-48.633c1.9366-15.989 1.3367-24.872 14.099-27.936 5.5078-3.7159 8.4569-4.1643 5.1621 2.7541-3.9959 12.12-4.3006 21.07-5.9802 37.612-1.7193 16.933-3.6392 28.033-7.2979 55.219-3.5998 26.748-8.8295 74.364-11.988 103.93s-7.3251 48.953-16.098 71.964c-8.0814 10.683-23.099 3.0582-33.379 0.06303-11.321-4.0953-10.424-16.897-9.921-26.656 1.0247-41.461 7.5778-82.544 9.263-123.98 2.154-35.114 3.42-70.547 10.253-105.1 2.2151-6.3752 8.329-3.2611 12.111-0.70088z"/>
  <path d="m802.01 324.79c5.04-31.321 4.7033-63.249 9.0829-94.601 2.5196-7.5466 5.7666-27.117-7.8229-18.48-13.741 3.8899-27.131 13.564-41.839 10.641-13.641-3.748-14.717-19.546-19.401-30.617-3.9466-10.613-1.0252-25.56 11.651-28.1 21.427-7.6597 42.335-16.767 63.532-24.94 17.919-5.7313 31.665 8.7986 46.011 16.529 19.417 10.873 40.866 19.517 63.401 19.944 15.892-6.6935 30.875 5.4861 42.298 15.129 15.616 10.065 32.185 18.51 48.368 27.599 9.7687 10.684-2.1482 22.915-9.0031 31.391-6.2846 15.828-25.963 15.565-38.527 7.8689-12.131-3.1491-24.097-19.341-32.554-20.001-4.7301 14.707-5.8167 30.344-13.168 44.238-7.2294 21.385-12.071 44.05-10.139 66.725-3.2798 15.359-22.418-1.4224-13.658-10.981-0.46069-30.502 11.465-58.875 20.411-87.433 0.96155-10.579 0.24468-30.71 15.333-30.411 14.538 6.0898 24.518 20.325 39.625 25.966 13.696 11.059 24.928-5.715 30.88-16.491-6.1416-8.5131-18.931-10.107-27.164-16.95-11.95-6.8021-23.973-13.78-34.167-23.11-14.159-2.7937-28.936 2.7228-42.78-3.2967-25.479-6.1193-48.213-19.777-70.409-33.057-15.821-4.3994-28.83 8.6453-43.341 12.229-10.357 6.4135-24.799 5.0266-33.164 14.701-2.8808 10.142 4.3055 22.318 9.8785 30.36 9.4474-1.2185 18.817-5.5248 28.359-7.6974 8.7236-1.7825 18.338-5.6404 27.029-2.634 12.266 8.1326 3.0405 23.761 2.5183 35.202-2.4679 28.589-3.2312 57.509-7.6074 85.833-1.2872 6.7014-9.99 14.908-13.634 4.4472z"/>
  <path d="m1018.6 226.77c3.282-3.7308 9.2572 6.2773 12.891 8.2914 9.5279 9.3467 19.209 18.577 28.627 28.011 7.3168 10.34 3.1891 23.669-0.1971 34.667-8.3375 26.292-16.47 52.706-27.265 78.118-4.2387 11.298-7.1686 23.739-15.239 33.021-9.5616 7.1164-22.262 6.0133-33.503 5.9865-10.861-2.7528-7.9735-15.226-5.2256-22.952 4.0104-19.916 6.8774-40.098 12.887-59.561 5.4796-19.063 10.883-38.207 15.626-57.432 3.6345-6.9669-11.767-16.876-2.812-21.334 3.1756-6.7589 10.986 0.54154 13.456 5.3796 4.0506 6.2795 3.8422 14.142 1.5382 20.995-7.4756 32.607-19.541 64.084-24.715 97.224-0.47662 7.506-9.0633 18.103-2.7004 23.797 7.378 1.2836 17.826 0.43841 20.142-8.1058 5.9993-12.243 9.2242-25.635 15.23-37.874 9.104-24.754 17.303-49.925 23.981-75.41 0.4681-9.8494-9.2782-14.783-15-21.198-6.3932-6.4761-13.15-12.616-19.48-19.132-3.0057-4.1721 0.0949-8.5677 1.7575-12.49z"/>
  <path d="m742.07 185.16c-14.994 4.3859-30.447 7.1832-46.082 7.6742-22.694 0.6145-45.389 1.9022-68.097 1.4163-2.8362 0.60255-8.7737-2.3002-6.579 2.3377-2.12 5.1506-4.5854 12.684 3.9299 11.941 18.809 3.6356 38.011 4.5115 57.081 5.8104 22.563 0.81803 45.183-0.57471 67.528-3.749 6.801-2.5058 8.6212 7.8399 12.806 11.303-35.291 6.1693-71.394 6.9375-107.02 3.5225-15.089-1.358-30.604-1.7412-44.873-7.3989-6.4395-4.5046-6.8072-13.449-4.1876-20.2 1.5594-6.6342 3.8867-15.133 11.478-16.934 7.4451-1.0334 14.951 0.6981 22.444 0.24543 21.382-0.06002 42.766-0.87498 64.115-1.9552 12.042-0.94782 23.745-4.1652 35.303-7.4127 4.8201 0.66657 0.89222 9.9657 2.1545 13.399z"/>
  <path d="m605.67 190.54c-8.0983-1.4037-16.564-3.6046-24.683-1.1072-4.0057 1.258-7.7587 5.2117-6.8454 9.6669 0.99989 3.544 5.0386 4.8487 8.3354 5.1116 8.6117 0.92565 17.83-2.6813 22.968-9.7582 1.4622-3.4241-5.9139-2.8546-3.7069-6.5608 1.0052-3.5443 2.4086-7.0579 4.7511-9.9431 3.0393-1.4253 5.3615 2.3214 7.519 3.9145 3.9518 4.0016 6.4781 10.031 4.5989 15.598-2.2098 7.4681-8.8107 12.549-15.507 15.888-8.6483 4.4551-18.887 5.5425-28.301 3.115-6.3264-1.502-13.048-5.1482-15.1-11.745-1.4596-4.5747-0.04305-9.4757 1.7458-13.747 3.0415-6.7296 8.7196-12.503 15.965-14.505 9.9686-2.9532 20.487-1.0094 30.436 1.018-1.2234 4.2503-1.8305 8.6519-2.1753 13.053z"/>
  <path d="m1018.3 405.78c-1.4506 5.5069-2.2367 11.157-3.013 16.79 6.0774-0.76268 11.537 2.6341 17.037 4.6348 3.7166 1.6626 7.3413 3.5924 10.578 6.0782 4.403 5.7772 0.2117 15.016-6.7064 16.35-8.959 3.4762-18.697 1.3609-27.844-0.08135-10.77-1.953-21.854-5.5722-29.697-13.574-3.9848-4.9109-4.5672-11.954-2.4365-17.778 0.11446-3.6959 3.5559-6.9585 7.2811-6.4797 3.6011-0.72257 7.471 3.7602 5.2309 7.0463-1.9825 4.6244 0.38315 10.771 5.3188 12.312 7.5842 3.8847 16.071 5.8008 24.553 6.1982-1.6121-3.957-6.7231-2.4479-9.7448-4.4351-4.3918-2.15-7.8224-7.0613-6.735-12.087 0.1742-3.7621 2.0821-7.6913 5.6815-9.2408 3.3639-2.1485 6.9669-3.8806 10.496-5.7338z"/>
  <path d="m200.03 479.7c4.9424 0.1433 8.5572 4.8545 8.9193 9.5234 1.4886 8.5344-4.1273 16.189-4.2342 24.613 0.34561 1.9789-1.5884 8.0297 2.1842 6.3442 4.0184-2.2216 7.5969-5.3017 10.227-9.1016 3.6352-5.2158 6.775-11.196 6.6807-17.723 0.17056-6.0275-1.9658-11.807-4.4769-17.167-2.504-2.8438-1.1284-6.1145 0.53416-8.8903l3.6836-7.7556c4.0098 6.6879 8.4758 13.175 11.55 20.365 3.8496 11.986 2.0311 25.728-5.2632 36.058-5.4251 8.5887-13.548 16.476-23.94 18.145-7.0455 0.67778-13.413-5.3309-14.27-12.15-1.6866-9.6717 1.3083-19.311 4.0646-28.49 1.4187-4.5988 2.9249-9.1701 4.3402-13.77z"/>
  <path d="m951.56 94.78c-0.36394-11.621-11.65-17.799-19.002-25.104-9.4318-7.8872-19.806-18.182-33.145-16.798-11.228 2.3387-17.149 17.467-9.7545 26.531 7.3888 12.852 22.847 17.046 36.497 19.126 8.3027 2.956 8.4326 13.441 6.1759 20.538-5.9362 16.385-2.6202 37.243 11.98 48.082 10.055 8.0615 21.843 13.831 33.803 18.442 10.582 3.1184 23.63 2.7716 31.816-5.5542 4.1352-8.4861-3.8564-16.221-9.3032-21.834-12.916-12.772-29.636-22.562-37.843-39.408-1.1914-10.484-11.976-16.79-13.724-26.68 2.6472-11.746 16.293-4.5728 17.889 4.0946 6.0984 11.806 10.437 25.234 21.321 33.723 13.464 12.201 30.637 22.703 36.239 41.072 3.5832 11.234-5.3449 22.921-16.078 25.781-17.778 7.8932-38.492 2.6209-54.155-7.621-16.084-8.2505-32.312-20.813-36.091-39.524-3.1561-12.42-2.3025-25.766 2.108-37.776-16.934-4.621-35.905-11.564-43.898-28.591-6.8611-13.886-2.301-33.048 12.015-40.267 11.236-6.279 25.6-4.03 35.653 3.5254 13.947 8.9752 26.054 20.647 36.987 33.015 3.9191 4.6791 6.4582 17.513-3.2316 15.471-2.0136-0.51344-4.2214-0.83363-6.2561-0.24324z"/>
  <path d="m883.8 93.625c-5.8584 7.8326-11.696 16.093-13.857 25.811-3.5128 13.619-2.414 28.076 1.4013 41.503 2.0284 3.6669-3.4484 0.51105-5.403 0.57084-2.3669-1.0466-6.2286-0.29264-7.3998-2.7808-3.1249-7.0493-4.3224-14.801-4.002-22.477 0.0777-14.018 3.8497-28.002 11.09-40.026 3.6793-6.695 8.5724-13.691 16.288-15.935 3.4228-0.76957 1.8823 10.895 1.8823 13.334z"/>
  <path d="m300.26 172.1c0.37743 7.1684-9.2063 9.5286-12.541 3.3959-3.4854-6.2482-3.021-13.945-3.1035-20.897 0.02955-10.113 8.8554-16.599 13.847-24.451 1.8238-2.1524-0.97817-0.15504-2.5106-3.1887-8.937-9.7059-13.278-24.178-26.078-29.881-7.3597-2.8005-16.434-3.2317-23.058 1.575-10.909 6.3205-22.472 12.884-29.766 23.478-7.4729 13.504-3.9438 30.665 4.9847 42.587 7.7667 11.086 16.56 21.471 26.085 31.08l-6.7874 11.497c-8.4084-5.6514-14.886-13.699-21.29-21.445-9.9579-13.064-19.102-27.943-20.101-44.766-1.1361-13.474 4.1716-27.372 14.533-36.186 9.839-8.9395 21.635-15.421 33.271-21.642 13.996-4.2788 30.349-0.18209 40.352 10.613 8.2177 8.0736 12.355 19.371 20.925 27.122 5.2957 5.3805 3.6627 13.937-1.1122 19.036-4.0767 5.8437-11.32 11.139-9.8705 19.091 0.09587 4.423 0.72139 8.8133 2.222 12.983z"/>
  <path d="m249.98 89.655c-7.5674 1.2513-11.459 8.5736-16.211 13.742-6.2529 7.3681-15.867 12.119-19.404 21.587-4.5306 10.941-1.5424 22.901-2.0436 34.314-0.48094 5.1329 2.6649 9.804 6.1248 13.298 2.3994 2.058 5.6622 4.8325 8.9563 3.0251 5.0066-2.6452 7.0737-8.7275 7.4813-14.057 0.45743-4.8653-0.9447-9.8734 0.28248-14.64 2.6963-7.2014 9.6536-11.316 14.478-16.94 7.3047-7.5488 15.173-14.66 21.431-23.137 2.3425-3.1786 4.4398-8.3054 1.066-11.525-4.2786-3.9645-10.611-3.6034-15.995-4.4951-2.0766-0.26208-4.152-0.59294-6.1664-1.173z"/>
  <path d="m798.28 713.81c-13.243 2.9399-26.101 7.4977-38.388 13.228-2.2184 4.3642 4.1955 4.9369 7.1274 5.1532 18.556 2.971 37.346 6.5867 56.219 4.6562 5.3439-1.9352 3.8971-8.4734 4.3441-12.81 1.4133-4.2946 4.8126-7.5397 8.3396-10.184 5.4417 0.62205 3.1593 7.5091 4.929 11.001 1.1432 6.7952 2.4581 14.934-2.503 20.588-5.1721 5.1137-12.972 4.6134-19.688 5.1744-18.188 0.80062-36.278-2.2413-54.025-5.8978-7.7424-1.9503-16.451-4.3758-21.19-11.329-2.608-4.4712-1.7304-10.975 2.8414-13.838 7.187-5.59 16.128-8.0888 24.446-11.468 7.9098-2.8597 15.823-6.0269 24.116-7.4986 2.7355 3.0558 3.3088 12.75 3.4313 13.226z"/>
 </g>
</svg>
